<svg width="36" height="36" viewBox="0 0 36 36" fill="none" xmlns="http://www.w3.org/2000/svg">
<g clip-path="url(#clip0)">
<path d="M10.143 15.0525C10.143 15.498 10.1959 15.8557 10.278 16.119C10.3714 16.3822 10.4951 16.6702 10.6594 16.9807C10.7148 17.0622 10.7452 17.1579 10.7471 17.2564C10.7471 17.379 10.6706 17.4971 10.5188 17.6197L9.76275 18.1181C9.67308 18.1861 9.56471 18.225 9.45225 18.2295C9.32963 18.2295 9.2115 18.171 9.0945 18.0596C8.9308 17.8878 8.78562 17.6993 8.66138 17.4971C8.52665 17.2691 8.40349 17.0344 8.29238 16.794C7.35525 17.8954 6.183 18.4466 4.77113 18.4466C3.76313 18.4466 2.961 18.1597 2.37488 17.5849C1.78875 17.0044 1.49063 16.2427 1.49063 15.282C1.49063 14.2684 1.84838 13.4359 2.58075 12.8149C3.31313 12.1939 4.2795 11.8834 5.51588 11.8834C5.91975 11.8834 6.34163 11.9182 6.7815 11.9767C7.227 12.0352 7.68375 12.1354 8.1585 12.24V11.367C8.1585 10.4591 7.97063 9.82012 7.596 9.45112C7.21463 9.08212 6.57113 8.89987 5.64525 8.89987C5.229 8.89987 4.79588 8.94712 4.35038 9.05175C3.9116 9.15848 3.48081 9.29569 3.06113 9.46237C2.9205 9.5265 2.77988 9.57375 2.63925 9.621C2.57802 9.63917 2.51505 9.65086 2.45138 9.65587C2.2815 9.65587 2.19938 9.53325 2.19938 9.28125V8.69512C2.19938 8.50725 2.223 8.361 2.2815 8.27887C2.36942 8.16761 2.48448 8.08083 2.61563 8.02687C3.09442 7.78772 3.60015 7.60681 4.122 7.488C4.73223 7.3306 5.36045 7.25382 5.99063 7.25962C7.4205 7.25962 8.45775 7.58137 9.13163 8.23275C9.7875 8.87737 10.1216 9.85612 10.1216 11.1746V15.0536L10.143 15.0525ZM5.28525 16.875C5.67788 16.875 6.0885 16.8041 6.516 16.6579C6.95556 16.5092 7.34769 16.2463 7.65225 15.8962C7.84575 15.6679 7.992 15.4159 8.06288 15.129C8.13375 14.8421 8.17988 14.49 8.17988 14.0861V13.5821C7.81698 13.4928 7.44925 13.4244 7.0785 13.3774C6.70539 13.3298 6.32963 13.3062 5.9535 13.3065C5.15025 13.3065 4.56525 13.4651 4.17263 13.7869C3.77438 14.1086 3.5865 14.5665 3.5865 15.1639C3.5865 15.7264 3.72713 16.1426 4.02638 16.4295C4.31325 16.7287 4.73513 16.875 5.28638 16.875H5.28525ZM14.9006 18.1699C14.6835 18.1699 14.5372 18.135 14.4439 18.0472C14.3505 17.9764 14.2627 17.8065 14.1919 17.5849L11.3794 8.32725C11.3244 8.17212 11.2888 8.01076 11.2736 7.84687C11.2736 7.65337 11.367 7.54762 11.5549 7.54762H12.7327C12.9611 7.54762 13.1141 7.5825 13.1951 7.66462C13.2952 7.7355 13.365 7.90537 13.4359 8.13375L15.4519 16.0616L17.3205 8.13375C17.379 7.893 17.4499 7.7355 17.5432 7.66462C17.6873 7.57658 17.8552 7.53568 18.0236 7.54762H18.9788C19.2071 7.54762 19.3658 7.5825 19.4591 7.66462C19.5525 7.7355 19.6402 7.90537 19.6875 8.13375L21.5797 16.155L23.6486 8.13375C23.7251 7.893 23.8072 7.7355 23.8894 7.66462C24.0293 7.57667 24.1937 7.53569 24.3585 7.54762H25.4722C25.6657 7.54762 25.7715 7.641 25.7715 7.84687C25.7715 7.90537 25.7602 7.96387 25.7479 8.04037C25.7284 8.14212 25.7009 8.24218 25.6657 8.33962L22.7767 17.5916C22.7059 17.8324 22.6249 17.9899 22.5247 18.0607C22.3914 18.1484 22.2328 18.1896 22.0736 18.1777H21.042C20.8136 18.1777 20.6606 18.1429 20.5616 18.0607C20.4683 17.9786 20.3861 17.82 20.3389 17.5804L18.4815 9.85725L16.6354 17.568C16.5769 17.8087 16.506 17.9662 16.407 18.0484C16.3136 18.1305 16.1437 18.1654 15.9266 18.1654L14.9006 18.1699ZM30.2816 18.4927C29.6606 18.4927 29.0396 18.4162 28.4422 18.2756C27.8449 18.135 27.3757 17.9764 27.0652 17.7952C26.8717 17.6895 26.7435 17.5725 26.6962 17.4611C26.6474 17.3564 26.6213 17.2425 26.6197 17.127V16.5172C26.6197 16.2652 26.7199 16.1426 26.8954 16.1426C26.9662 16.1426 27.0416 16.1539 27.1125 16.1775C27.1834 16.2067 27.2936 16.254 27.4117 16.3001C27.8224 16.4812 28.2611 16.6219 28.7302 16.7164C29.2106 16.8165 29.6741 16.8626 30.1545 16.8626C30.9105 16.8626 31.4966 16.7276 31.9005 16.4644C32.2987 16.2236 32.5395 15.7905 32.5271 15.3281C32.5317 15.0178 32.4165 14.7176 32.2054 14.49C31.9882 14.2672 31.5787 14.0625 30.9926 13.869L29.2579 13.3301C28.3849 13.0545 27.7346 12.6506 27.342 12.1117C26.9553 11.6136 26.7434 11.002 26.739 10.3714C26.739 9.86737 26.8504 9.4275 27.0675 9.04162C27.2846 8.66025 27.5715 8.32725 27.9292 8.06287C28.3009 7.78024 28.7221 7.56962 29.1712 7.44187C29.6516 7.29562 30.1556 7.23712 30.6832 7.23712C30.9465 7.23712 31.2221 7.24837 31.4865 7.28437C31.7621 7.31925 32.0141 7.3665 32.2661 7.41937C32.5001 7.47787 32.7285 7.53637 32.9456 7.60725C33.1627 7.67812 33.3326 7.7535 33.4496 7.82437C33.5899 7.89593 33.7122 7.99822 33.8074 8.12362C33.8872 8.24054 33.9264 8.38049 33.9187 8.52187V9.08437C33.9187 9.33637 33.8186 9.46575 33.6431 9.46575C33.4831 9.44937 33.3279 9.40158 33.1864 9.32512C32.4637 9.00391 31.6798 8.84384 30.8891 8.856C30.204 8.856 29.664 8.96175 29.295 9.19012C28.9204 9.4185 28.7325 9.76387 28.7325 10.2566C28.7325 10.5907 28.8495 10.8776 29.0902 11.106C29.331 11.3344 29.7754 11.5627 30.4087 11.7686L32.1075 12.3019C32.9692 12.5775 33.5959 12.9645 33.9649 13.4561C34.3339 13.9421 34.5161 14.5046 34.5161 15.1324C34.5161 15.642 34.4047 16.1111 34.2056 16.5206C33.9899 16.9284 33.6927 17.2875 33.3326 17.5759C32.958 17.8751 32.5181 18.0855 32.0029 18.2441C31.4465 18.4136 30.8678 18.4985 30.2861 18.4961L30.2816 18.4927ZM32.5485 24.3101C28.6054 27.2227 22.8859 28.7629 17.964 28.7629C11.0678 28.7629 4.851 26.2136 0.157501 21.9724C-0.211499 21.6382 0.122626 21.1815 0.568126 21.4504C5.64188 24.3922 11.9059 26.1787 18.3802 26.1787C22.7509 26.1787 27.5501 25.2641 31.9736 23.4011C32.6295 23.0962 33.192 23.8286 32.5474 24.309L32.5485 24.3101ZM34.1899 22.4415C33.6859 21.7969 30.8554 22.131 29.5785 22.2896C29.1971 22.3369 29.133 21.9971 29.4851 21.7451C31.7351 20.169 35.4319 20.6201 35.8661 21.1477C36.2936 21.6922 35.7435 25.3901 33.6397 27.1597C33.318 27.4354 33.0007 27.2947 33.147 26.9314C33.6274 25.7479 34.6939 23.0816 34.1899 22.4426V22.4415Z" fill="black"/>
</g>
<defs>
<clipPath id="clip0">
<rect width="36" height="36" fill="white"/>
</clipPath>
</defs>
</svg>
