<svg width="42" height="42" viewBox="0 0 42 42" fill="none" xmlns="http://www.w3.org/2000/svg">
<path d="M20.5975 19.67H17.423V14.3535H21.189C23.2365 14.3535 24.3985 15.267 24.3985 16.919C24.3985 18.683 23.0457 19.67 20.594 19.67H20.5975ZM21.1645 21.7805H17.4247V27.6395H21.329C23.8822 27.6395 25.235 26.6157 25.235 24.6908C25.235 22.7657 23.8438 21.7805 21.1645 21.7805ZM42 19.9325V22.064C40.026 22.253 38.8203 23.716 38.1045 26.033C37.3923 28.3412 37.2943 31.1727 37.3695 33.3585C37.4482 35.6335 35.6755 37.7335 33.2798 37.7335H8.72375C6.32625 37.7335 4.5535 35.6335 4.634 33.3585C4.70925 31.1727 4.61125 28.3412 3.899 26.033C3.1815 23.716 1.974 22.253 0 22.064V19.9325C1.974 19.7435 3.18325 18.2805 3.89725 15.9635C4.61125 13.6552 4.70925 10.8237 4.63225 8.638C4.5535 6.363 6.32625 4.263 8.72375 4.263H33.2798C35.6772 4.263 37.4482 6.363 37.3695 8.638C37.2943 10.8237 37.3923 13.6552 38.1045 15.9635C38.8203 18.2805 40.026 19.7435 42 19.9325ZM28.1278 24.8622C28.1278 22.4927 26.46 20.7795 23.9837 20.5082V20.4085C25.8037 20.1127 27.2318 18.4223 27.2318 16.5358C27.2318 13.846 25.109 12.0942 21.8732 12.0942H14.5932V29.8952H21.91C25.7915 29.8952 28.1278 27.9947 28.1278 24.8622Z" fill="black"/>
</svg>
