<svg width="36" height="36" viewBox="0 0 36 36" fill="none" xmlns="http://www.w3.org/2000/svg">
<g clip-path="url(#clip0)">
<path d="M24.7635 25.2675C24.984 24.507 24.8985 23.811 24.531 23.2935C24.1935 22.8195 23.6235 22.545 22.938 22.5135L9.948 22.344C9.9086 22.3447 9.86965 22.3354 9.83477 22.3171C9.7999 22.2987 9.77022 22.2718 9.7485 22.239C9.72744 22.2042 9.71389 22.1654 9.70872 22.1251C9.70356 22.0848 9.70689 22.0439 9.7185 22.005C9.742 21.9412 9.78306 21.8854 9.83694 21.844C9.89083 21.8026 9.95533 21.7772 10.023 21.771L23.127 21.6015C24.6795 21.528 26.367 20.2725 26.958 18.732L27.7065 16.779C27.7402 16.6994 27.7476 16.611 27.7275 16.527C27.3203 14.7114 26.3307 13.0786 24.9097 11.8775C23.4886 10.6763 21.7139 9.97249 19.8559 9.87329C17.9978 9.77408 16.1582 10.2849 14.6174 11.3279C13.0765 12.371 11.9188 13.8891 11.3205 15.651C10.5479 15.0766 9.58916 14.8103 8.631 14.904C8.08141 14.9598 7.55033 15.1335 7.07397 15.4132C6.59761 15.6929 6.18718 16.0721 5.87068 16.5248C5.55417 16.9776 5.33904 17.4933 5.23995 18.0367C5.14087 18.5802 5.16015 19.1386 5.2965 19.674C3.87749 19.7142 2.53016 20.3064 1.54103 21.3247C0.551911 22.3429 -0.000959703 23.7069 1.25059e-06 25.1265C1.25059e-06 25.389 0.0210013 25.653 0.0525013 25.917C0.0617521 25.9782 0.0924814 26.0342 0.139196 26.0748C0.185912 26.1155 0.245568 26.1382 0.307501 26.139H24.2775C24.414 26.139 24.5415 26.0415 24.5835 25.9065L24.7635 25.266V25.2675ZM28.899 16.9215C28.7835 16.9215 28.6575 16.9215 28.5405 16.938C28.4565 16.938 28.383 17.001 28.35 17.085L27.8445 18.846C27.6225 19.6065 27.7065 20.3025 28.0755 20.8215C28.413 21.2955 28.983 21.5685 29.6685 21.6015L32.4345 21.771C32.5185 21.771 32.592 21.81 32.634 21.876C32.6546 21.9109 32.6679 21.9496 32.6734 21.9898C32.6788 22.03 32.6761 22.0708 32.6655 22.11C32.6419 22.1739 32.6006 22.2299 32.5464 22.2713C32.4923 22.3128 32.4274 22.3379 32.3595 22.344L29.4795 22.512C27.9165 22.5855 26.241 23.8425 25.65 25.383L25.4385 25.92C25.3965 26.028 25.47 26.133 25.587 26.133H35.4825C35.5399 26.1339 35.5959 26.1158 35.642 26.0817C35.6881 26.0475 35.7217 25.9991 35.7375 25.944C35.904 25.332 36 24.6885 36 24.024C35.9948 22.1432 35.2447 20.3411 33.9138 19.0122C32.583 17.6833 30.7798 16.9358 28.899 16.9335" fill="black"/>
</g>
<defs>
<clipPath id="clip0">
<rect width="36" height="36" fill="white"/>
</clipPath>
</defs>
</svg>
