<svg width="32" height="32" viewBox="0 0 32 32" fill="none" xmlns="http://www.w3.org/2000/svg">
<g clip-path="url(#clip0)">
<path d="M11.317 32C10.309 31.5557 9.43963 30.8474 8.80087 29.9498C8.1621 29.0523 7.7776 27.9989 7.68799 26.901C7.74741 25.7661 8.0748 24.6615 8.64335 23.6775C9.2119 22.6935 10.0054 21.8582 10.959 21.24C10.8017 21.6205 10.7376 22.033 10.7718 22.4433C10.8061 22.8536 10.9378 23.2498 11.156 23.599C11.4003 23.9419 11.7392 24.2064 12.1313 24.36C12.5234 24.5136 12.9517 24.5497 13.364 24.464C13.7561 24.3536 14.1112 24.1395 14.3918 23.8441C14.6724 23.5488 14.8682 23.1832 14.9584 22.786C15.0486 22.3887 15.0299 21.9745 14.9044 21.5869C14.7788 21.1994 14.551 20.8529 14.245 20.584C13.5746 20.0403 13.0562 19.3325 12.7403 18.5293C12.4243 17.726 12.3216 16.8547 12.442 16C12.6785 15.0771 13.1889 14.2473 13.906 13.62C13.363 15.063 14.885 16.479 15.911 17.183C17.7242 18.2688 19.47 19.4633 21.139 20.76C22.0375 21.4682 22.7499 22.3847 23.2146 23.4301C23.6793 24.4756 23.8823 25.6185 23.806 26.76C23.6072 27.9629 23.0814 29.088 22.2861 30.0122C21.4909 30.9363 20.4568 31.624 19.297 32C24.026 30.948 28.906 27.188 29 21.855C28.9535 19.7652 28.3151 17.7314 27.1591 15.9898C26.0031 14.2483 24.3768 12.8703 22.469 12.016H22.297C22.38 12.224 22.421 12.448 22.416 12.677C22.427 12.5295 22.427 12.3814 22.416 12.234C22.437 12.411 22.437 12.583 22.416 12.754C22.2732 13.3379 21.9046 13.8413 21.3912 14.1538C20.8777 14.4663 20.2612 14.5624 19.677 14.421C19.1921 14.3017 18.7601 14.0258 18.448 13.636C16.885 11.636 18.448 9.35999 18.708 7.15599C18.7873 5.77474 18.5169 4.39581 17.9217 3.14687C17.3265 1.89792 16.4258 0.819337 15.303 0.0109863C16.443 1.91199 14.922 4.41199 13.818 5.83399C12.714 7.25599 11.115 8.31299 9.80699 9.55299C8.40127 10.8644 7.11364 12.2969 5.95899 13.834C4.72502 15.3416 3.84486 17.1068 3.3833 18.9996C2.92175 20.8924 2.89054 22.8646 3.29199 24.771C3.83832 26.5961 4.87502 28.2363 6.28917 29.5129C7.70331 30.7895 9.44068 31.6536 11.312 32.011H11.333L11.317 32Z" fill="black"/>
</g>
<defs>
<clipPath id="clip0">
<rect width="32" height="32" fill="white"/>
</clipPath>
</defs>
</svg>
