<svg width="47" height="32" viewBox="0 0 47 32" fill="none" xmlns="http://www.w3.org/2000/svg">
<path d="M11.6429 7.67288H20.4441L19.0812 12.892C18.8729 13.6194 18.4834 14.2038 17.9129 14.6448C17.3416 15.0869 16.6795 15.3073 15.9269 15.3073H11.8377C10.903 15.3073 10.0783 15.5796 9.36479 16.1252C8.65015 16.6704 8.1509 17.4102 7.86537 18.3453C7.68355 19.0463 7.66402 19.7085 7.80706 20.3316C7.94955 20.9548 8.20261 21.5069 8.56626 21.9867C8.92963 22.4676 9.39697 22.8506 9.96857 23.1361C10.5391 23.4222 11.1624 23.5642 11.8377 23.5642H14.3298C14.7975 23.5642 15.1801 23.7529 15.4788 24.129C15.777 24.5059 15.8617 24.9274 15.7319 25.3948L14.1744 31.1595H11.4485C9.57907 31.1595 7.85877 30.7504 6.28811 29.9325C4.71718 29.1146 3.41251 28.0309 2.37439 26.6801C1.33572 25.3304 0.627961 23.792 0.251938 22.0651C-0.124635 20.3382 -0.0789734 18.566 0.388374 16.748L0.544064 16.164C0.873191 14.9348 1.40626 13.7695 2.12105 12.7168C2.83514 11.6653 3.67878 10.7695 4.65254 10.0295C5.62602 9.28944 6.71007 8.71171 7.90443 8.29629C9.09825 7.88114 10.3443 7.67288 11.6429 7.67288ZM16.0823 31.1592L23.7541 2.41521C23.9615 1.68837 24.351 1.1043 24.9226 0.662471C25.4931 0.220916 26.1549 7.87103e-07 26.9086 7.87103e-07H35.048C36.9171 7.87103e-07 38.6366 0.409093 40.2078 1.227C41.7781 2.04491 43.0828 3.1294 44.1215 4.4791C45.1596 5.82963 45.874 7.36806 46.2635 9.09466C46.653 10.8218 46.6004 12.5941 46.1075 14.4112L45.9521 14.9956C45.6143 16.2418 45.0952 17.391 44.3944 18.4427C43.6929 19.4942 42.8559 20.3968 41.8824 21.1495C40.9086 21.9028 39.8243 22.4871 38.6305 22.902C37.4361 23.318 36.1898 23.5254 34.892 23.5254H27.8433L29.2451 18.2672C29.4527 17.5662 29.842 16.9953 30.4136 16.5532C30.9843 16.1122 31.6462 15.8913 32.3996 15.8913H34.6585C35.5929 15.8913 36.4302 15.6057 37.1699 15.0343C37.9101 14.4635 38.3967 13.7234 38.6305 12.8142C38.812 12.1655 38.8313 11.5289 38.6891 10.9057C38.5461 10.2826 38.293 9.731 37.9293 9.25038C37.5657 8.77031 37.0984 8.38102 36.5276 8.08198C35.9563 7.78375 35.3332 7.63409 34.6585 7.63409H30.2964L24.6106 28.7836C24.4024 29.4846 24.0129 30.056 23.4421 30.4973C22.8711 30.9391 22.2216 31.1595 21.4949 31.1595L16.0823 31.1592Z" fill="black"/>
</svg>
