<svg width="64" height="64" viewBox="0 0 64 64" fill="none" xmlns="http://www.w3.org/2000/svg">
<path d="M8.5333 49.0667H21.3333M57.6 23.4667H6.39997H57.6ZM57.6 23.4667C58.7316 23.4667 59.8168 23.0172 60.617 22.217C61.4171 21.4169 61.8666 20.3316 61.8666 19.2V10.6667C61.8666 9.5351 61.4171 8.44986 60.617 7.6497C59.8168 6.84955 58.7316 6.40002 57.6 6.40002H6.39997C5.26838 6.40002 4.18313 6.84955 3.38298 7.6497C2.58282 8.44986 2.1333 9.5351 2.1333 10.6667V19.2C2.1333 20.3316 2.58282 21.4169 3.38298 22.217C4.18313 23.0172 5.26838 23.4667 6.39997 23.4667H57.6ZM57.6 23.4667C58.7316 23.4667 59.8168 23.9162 60.617 24.7164C61.4171 25.5165 61.8666 26.6018 61.8666 27.7334V36.2667C61.8666 37.3983 61.4171 38.4835 60.617 39.2837C59.8168 40.0838 58.7316 40.5334 57.6 40.5334V23.4667ZM6.39997 23.4667C5.26838 23.4667 4.18313 23.9162 3.38298 24.7164C2.58282 25.5165 2.1333 26.6018 2.1333 27.7334V36.2667C2.1333 37.3983 2.58282 38.4835 3.38298 39.2837C4.18313 40.0838 5.26838 40.5334 6.39997 40.5334V23.4667ZM57.6 40.5334H6.39997H57.6ZM57.6 40.5334C58.7316 40.5334 59.8168 40.9829 60.617 41.783C61.4171 42.5832 61.8666 43.6684 61.8666 44.8V53.3334C61.8666 54.4649 61.4171 55.5502 60.617 56.3503C59.8168 57.1505 58.7316 57.6 57.6 57.6H6.39997C5.26838 57.6 4.18313 57.1505 3.38298 56.3503C2.58282 55.5502 2.1333 54.4649 2.1333 53.3334V44.8C2.1333 43.6684 2.58282 42.5832 3.38298 41.783C4.18313 40.9829 5.26838 40.5334 6.39997 40.5334H57.6ZM8.5333 14.9334H21.3333H8.5333ZM8.5333 32H21.3333H8.5333Z" stroke="black" stroke-width="2"/>
</svg>
