<svg width="64" height="64" viewBox="0 0 64 64" fill="none" xmlns="http://www.w3.org/2000/svg">
<path d="M59.3926 53.2467C58.189 57.3532 54.2788 59.3338 50.3278 59.719C46.3795 60.104 41.9886 58.9543 39.4017 56.3439L39.3753 56.3172L39.3509 56.2887C39.1777 56.0854 39.0074 55.8944 38.8409 55.7076C38.1611 54.9451 37.5433 54.252 37.0375 53.0775L36.6851 52.259L37.4578 51.815L42.3338 49.013L43.1477 48.5452L43.6658 49.328C44.3011 50.2876 44.8632 50.9597 45.4791 51.4464C46.0714 51.9146 46.7548 52.2436 47.6812 52.4555C49.0127 52.6145 50.2154 52.444 50.9698 52.0064C51.3337 51.7954 51.5717 51.5367 51.7054 51.2349C51.8368 50.9381 51.9038 50.517 51.7867 49.9147C51.6938 49.6005 51.4413 49.2639 50.8988 48.8825C50.3379 48.4882 49.5785 48.1228 48.6457 47.7197C48.3626 47.5973 48.0646 47.4722 47.7558 47.3425C46.1123 46.6525 44.1636 45.8343 42.5337 44.6207C40.4303 43.1864 39.1764 40.7927 38.8473 38.33C38.5176 35.8632 39.0995 33.2047 40.8308 31.2315C42.0437 29.7486 43.968 28.7027 45.9198 28.2283L45.9742 28.2151L46.0298 28.208L47.9158 27.968L47.9671 27.9615L48.0189 27.9603C51.8574 27.8716 54.4004 28.8912 56.3144 31.0254C56.883 31.5748 57.2904 32.1547 57.9965 33.2503L58.546 34.1028L57.6858 34.6401C56.9092 35.1252 56.4493 35.4124 55.9918 35.7034C55.3238 36.1283 54.6608 36.5611 53.0247 37.6293L52.0629 38.2573L51.5734 37.2182C51.0806 36.1723 50.3346 35.5863 49.583 35.3527C48.9688 35.17 48.2869 35.1847 47.7538 35.384C47.243 35.5749 46.9176 35.9069 46.8055 36.3845L46.7987 36.4136L46.7901 36.4423C46.7182 36.683 46.6985 36.9291 46.9012 37.6891C47.097 38.0825 47.5388 38.4627 48.3292 38.8803C48.7285 39.0913 49.175 39.2911 49.6635 39.5028C49.7617 39.5453 49.8619 39.5884 49.9636 39.6322C50.3489 39.7981 50.7551 39.973 51.1503 40.1573C54.0222 41.3269 56.038 42.5723 57.4062 43.9676C58.8011 45.39 59.483 46.9278 59.7475 48.5822L59.6546 48.621C60.0447 51.1278 59.5225 52.8244 59.4046 53.2076C59.3999 53.2227 59.3959 53.2357 59.3926 53.2467ZM59.3926 53.2467C59.3923 53.2476 59.3921 53.2485 59.3918 53.2493L58.434 52.962L59.3938 53.2428C59.3934 53.2441 59.393 53.2454 59.3926 53.2467ZM35.7987 29.4968L35.8863 28.416H34.802H28.812H27.812V29.416C27.812 31.9963 27.804 34.5695 27.796 37.1459L27.796 37.1484C27.788 39.7251 27.78 42.3052 27.78 44.896C27.78 45.5786 27.7868 46.2336 27.7933 46.8561C27.8028 47.7711 27.8116 48.6158 27.7969 49.3744C27.7848 50.0025 27.7567 50.5281 27.7044 50.9405C27.6483 51.3832 27.5768 51.5789 27.5476 51.6301L27.5306 51.66L27.5156 51.691C27.2517 52.2372 26.799 52.4941 26.2205 52.5886C25.6453 52.6826 25.025 52.5938 24.6099 52.4755C23.8645 52.0886 23.4536 51.5723 22.8916 50.6183L22.8838 50.6052L22.8756 50.5922C22.8213 50.5062 22.786 50.4472 22.7494 50.3859C22.7223 50.3407 22.6946 50.2943 22.6579 50.2349C22.6279 50.1863 22.5809 50.1113 22.5285 50.0424C22.5045 50.0108 22.4527 49.9446 22.3785 49.8771C22.341 49.843 22.2742 49.7867 22.1808 49.7348C22.0928 49.6858 21.9193 49.606 21.686 49.606H21.4024L21.161 49.7549L16.297 52.7549L15.5286 53.2289L15.9219 54.0416C16.799 55.8541 18.1061 57.469 19.8408 58.5063L19.8409 58.5064C22.3771 60.0223 25.7086 60.4724 29.1244 59.7079L29.1546 59.7011L29.1844 59.6925C31.4539 59.0347 33.5215 57.6544 34.6158 55.4327C35.3884 54.0179 35.6718 52.4811 35.7722 50.9202C35.8425 49.8272 35.8244 48.6546 35.8062 47.4791C35.7988 47 35.7914 46.5204 35.79 46.0456C35.8113 42.3931 35.8042 38.7384 35.7971 35.0754C35.7936 33.254 35.7901 31.4306 35.79 29.6045L35.7987 29.4968ZM1 1H63V63H1V1Z" fill="white" stroke="black" stroke-width="2"/>
</svg>
