<svg width="23" height="23" viewBox="0 0 23 23" fill="none" xmlns="http://www.w3.org/2000/svg">
<g clip-path="url(#clip0)">
<path d="M22.6198 5.44053C22.6284 5.47043 22.6327 5.50137 22.6327 5.53247V10.2667C22.6327 10.3908 22.5656 10.5058 22.4589 10.5665L18.4841 12.8559V17.3925C18.484 17.4532 18.468 17.5128 18.4377 17.5654C18.4073 17.618 18.3638 17.6617 18.3113 17.6922L10.0123 22.4678C9.99311 22.4784 9.97275 22.4867 9.95165 22.4926C9.94429 22.4945 9.93694 22.5 9.92958 22.5018C9.8719 22.5184 9.81073 22.5184 9.75305 22.5018C9.74293 22.5 9.73466 22.4945 9.72546 22.4908C9.70707 22.4834 9.68685 22.4779 9.66846 22.4678L1.37226 17.6922C1.31949 17.6619 1.27563 17.6183 1.24511 17.5657C1.2146 17.513 1.19852 17.4533 1.19849 17.3925V3.18236C1.19849 3.15202 1.20308 3.12167 1.21136 3.09225C1.21412 3.08122 1.22055 3.07386 1.22423 3.06283C1.22976 3.04449 1.23684 3.02665 1.24538 3.0095C1.24906 2.99755 1.25917 2.98927 1.26653 2.97916L1.29687 2.93778C1.3079 2.92859 1.31985 2.92123 1.33089 2.91296C1.34376 2.90193 1.35571 2.89089 1.36858 2.8817H1.3695L5.51898 0.493886C5.5714 0.463624 5.63085 0.447693 5.69138 0.447693C5.7519 0.447693 5.81136 0.463624 5.86377 0.493886L10.0123 2.8817H10.0142C10.028 2.89089 10.039 2.90101 10.0509 2.91204L10.0859 2.93686C10.0978 2.94974 10.1043 2.96445 10.1162 2.97824C10.1236 2.98835 10.1346 2.99755 10.1392 3.00858C10.1484 3.02697 10.1548 3.04352 10.1613 3.06191C10.164 3.07202 10.1705 3.08122 10.1732 3.09133C10.1824 3.11984 10.1861 3.15018 10.1861 3.18144V12.056L13.6432 10.0663V5.52971C13.6432 5.49937 13.6469 5.46903 13.6552 5.43961C13.6579 5.43041 13.6644 5.42122 13.6671 5.41018C13.6733 5.39164 13.6807 5.37352 13.6892 5.35594C13.6956 5.3449 13.7058 5.33755 13.7122 5.32559C13.7232 5.3118 13.7315 5.29801 13.7425 5.28606C13.7536 5.27503 13.7655 5.26767 13.7766 5.26031C13.7894 5.25112 13.8005 5.23917 13.8143 5.23089H13.8152L17.9647 2.84216C18.0171 2.8119 18.0765 2.79597 18.137 2.79597C18.1976 2.79597 18.257 2.8119 18.3094 2.84216L22.4589 5.23089C22.4736 5.24009 22.4837 5.2502 22.4975 5.25939C22.5086 5.26859 22.5205 5.27594 22.5306 5.28514C22.5426 5.29801 22.5509 5.31272 22.5619 5.32559C22.5693 5.33663 22.5794 5.3449 22.584 5.35594C22.5941 5.37433 22.6005 5.39271 22.606 5.4111C22.6116 5.4203 22.6171 5.43041 22.6198 5.44053V5.44053ZM21.9394 10.0672V6.12919L20.4885 6.96405L18.4823 8.11888V12.0569L21.9394 10.0672ZM17.7927 17.1929V13.2513L15.8187 14.3776L10.1861 17.5938V21.5704L17.7927 17.1929ZM1.88715 3.78V17.1929L9.49376 21.5704V17.5938L5.5199 15.3458L5.51806 15.343H5.51622C5.50335 15.3338 5.49324 15.3237 5.47944 15.3145C5.46933 15.3053 5.45738 15.2979 5.44726 15.2897L5.44634 15.2878C5.43439 15.2768 5.42704 15.2648 5.41784 15.2511C5.40865 15.2409 5.39853 15.2308 5.3921 15.218H5.39026C5.3829 15.2051 5.3783 15.1895 5.37187 15.1747C5.36635 15.16 5.359 15.1499 5.35532 15.1352C5.35184 15.1179 5.34939 15.1004 5.34796 15.0828C5.34612 15.0699 5.34245 15.058 5.34245 15.0451V5.77061L3.33805 4.61486L1.88715 3.78ZM5.69092 1.19267L2.23379 3.18236L5.69092 5.17205L9.14621 3.18236L5.69092 1.19267ZM7.48936 13.6098L9.4956 12.455V3.78L8.04287 4.6167L6.03663 5.77061V14.4456L7.48936 13.6098ZM18.1375 3.54186L14.6804 5.53063L18.1375 7.5194L21.5937 5.52971L18.1375 3.54186ZM17.7918 8.11888L15.7865 6.96405L14.3337 6.13011V10.0681L16.34 11.2229L17.7927 12.0578L17.7918 8.11888ZM9.83856 16.9953L14.9084 14.1008L17.4424 12.6554L13.988 10.6667L10.0133 12.9552L6.3897 15.0423L9.83856 16.9953Z" fill="black"/>
</g>
<defs>
<clipPath id="clip0">
<rect width="22.0668" height="22.0668" fill="white" transform="translate(0.88208 0.447937)"/>
</clipPath>
</defs>
</svg>
