<svg width="17" height="20" viewBox="0 0 17 20" fill="none" xmlns="http://www.w3.org/2000/svg">
    <path fill-rule="evenodd" clip-rule="evenodd"
          d="M16.0196 12.975C15.7154 13.43 15.4842 13.9906 14.8657 13.9906C13.8247 13.9906 13.7684 12.4028 12.7268 12.4028C11.6853 12.4028 11.7416 13.9906 10.7006 13.9906C9.65956 13.9906 9.60328 12.4028 8.56172 12.4028C7.52017 12.4028 7.57645 13.9906 6.53545 13.9906C5.49446 13.9906 5.43817 12.4028 4.39662 12.4028C3.35506 12.4028 3.41135 13.9906 2.37035 13.9906C2.04318 13.9906 1.81328 13.8337 1.61949 13.6187C0.874588 12.3364 0.446045 10.8338 0.446045 9.22733C0.446045 4.52403 4.11925 0.711243 8.65037 0.711243C13.1815 0.711243 16.8547 4.52403 16.8547 9.22733C16.8547 10.5721 16.5544 11.8441 16.0196 12.975Z"
          fill="black"/>
    <mask id="mask0" mask-type="alpha" maskUnits="userSpaceOnUse" x="3" y="10" width="11" height="10">
        <path d="M5.37385 12.1343V15.6617C5.37385 16.2947 4.85507 16.8078 4.21512 16.8078C3.57518 16.8078 3.0564 16.2947 3.0564 15.6617L3.0564 11.4034C3.27266 11.0108 3.51972 10.6708 3.96513 10.6708C4.6902 10.6708 4.94354 11.5717 5.37385 12.1343ZM9.75126 12.3181V17.8961C9.75126 18.5994 9.17484 19.1695 8.46379 19.1695C7.75274 19.1695 7.17632 18.5994 7.17632 17.8961V11.5829C7.41876 11.1205 7.66866 10.6708 8.18094 10.6708C8.99198 10.6708 9.2128 11.798 9.75126 12.3181ZM13.8712 12.2157V16.2652C13.8712 16.8982 13.3524 17.4113 12.7125 17.4113C12.0725 17.4113 11.5537 16.8982 11.5537 16.2652V11.288C11.7555 10.9464 11.9957 10.6708 12.3968 10.6708C13.158 10.6708 13.3992 11.6637 13.8712 12.2157Z"
              fill="white"/>
    </mask>
    <g mask="url(#mask0)">
        <path d="M5.37385 12.1343V15.6617C5.37385 16.2947 4.85507 16.8078 4.21512 16.8078C3.57518 16.8078 3.0564 16.2947 3.0564 15.6617L3.0564 11.4034C3.27266 11.0108 3.51972 10.6708 3.96513 10.6708C4.6902 10.6708 4.94354 11.5717 5.37385 12.1343ZM9.75126 12.3181V17.8961C9.75126 18.5994 9.17484 19.1695 8.46379 19.1695C7.75274 19.1695 7.17632 18.5994 7.17632 17.8961V11.5829C7.41876 11.1205 7.66866 10.6708 8.18094 10.6708C8.99198 10.6708 9.2128 11.798 9.75126 12.3181ZM13.8712 12.2157V16.2652C13.8712 16.8982 13.3524 17.4113 12.7125 17.4113C12.0725 17.4113 11.5537 16.8982 11.5537 16.2652V11.288C11.7555 10.9464 11.9957 10.6708 12.3968 10.6708C13.158 10.6708 13.3992 11.6637 13.8712 12.2157Z"
              fill="black"/>
    </g>
    <mask id="mask1" mask-type="alpha" maskUnits="userSpaceOnUse" x="3" y="8" width="11" height="7">
        <path d="M5.37385 13.2153C5.16831 12.9664 4.925 12.7817 4.57311 12.7817C3.73753 12.7817 3.58415 13.8233 3.0564 14.2929L3.0564 9.79994C3.0564 9.16695 3.57518 8.65381 4.21512 8.65381C4.85507 8.65381 5.37385 9.16695 5.37385 9.79994V13.2153ZM9.75126 13.2957C9.53204 13.0072 9.27579 12.7817 8.88697 12.7817C7.95734 12.7817 7.87212 14.071 7.17632 14.4274V12.4404C7.17632 11.7371 7.75274 11.1669 8.46379 11.1669C9.17484 11.1669 9.75126 11.7371 9.75126 12.4404V13.2957ZM13.8712 13.0727C13.6928 12.899 13.4813 12.7817 13.2008 12.7817C12.3003 12.7817 12.1921 13.9916 11.5537 14.3913V10.3584C11.5537 9.72542 12.0725 9.21228 12.7125 9.21228C13.3524 9.21228 13.8712 9.72542 13.8712 10.3584V13.0727Z"
              fill="white"/>
    </mask>
    <g mask="url(#mask1)">
        <path d="M5.37385 13.2153C5.16831 12.9664 4.925 12.7817 4.57311 12.7817C3.73753 12.7817 3.58415 13.8233 3.0564 14.2929L3.0564 9.79994C3.0564 9.16695 3.57518 8.65381 4.21512 8.65381C4.85507 8.65381 5.37385 9.16695 5.37385 9.79994V13.2153ZM9.75126 13.2957C9.53204 13.0072 9.27579 12.7817 8.88697 12.7817C7.95734 12.7817 7.87212 14.071 7.17632 14.4274V12.4404C7.17632 11.7371 7.75274 11.1669 8.46379 11.1669C9.17484 11.1669 9.75126 11.7371 9.75126 12.4404V13.2957ZM13.8712 13.0727C13.6928 12.899 13.4813 12.7817 13.2008 12.7817C12.3003 12.7817 12.1921 13.9916 11.5537 14.3913V10.3584C11.5537 9.72542 12.0725 9.21228 12.7125 9.21228C13.3524 9.21228 13.8712 9.72542 13.8712 10.3584V13.0727Z"
              fill="#1e293b" fill-opacity="0.298514"/>
    </g>
    <path fill-rule="evenodd" clip-rule="evenodd"
          d="M16.0196 12.975C15.7154 13.43 15.4842 13.9906 14.8657 13.9906C13.8247 13.9906 13.7684 12.4028 12.7268 12.4028C11.6853 12.4028 11.7416 13.9906 10.7006 13.9906C9.65956 13.9906 9.60328 12.4028 8.56172 12.4028C7.52017 12.4028 7.57645 13.9906 6.53545 13.9906C5.49446 13.9906 5.43817 12.4028 4.39662 12.4028C3.35506 12.4028 3.41135 13.9906 2.37035 13.9906C2.04318 13.9906 1.81328 13.8337 1.61949 13.6187C0.874588 12.3364 0.446045 10.8338 0.446045 9.22733C0.446045 4.52403 4.11925 0.711243 8.65037 0.711243C13.1815 0.711243 16.8547 4.52403 16.8547 9.22733C16.8547 10.5721 16.5544 11.8441 16.0196 12.975Z"
          fill="black"/>
    <path fill-rule="evenodd" clip-rule="evenodd"
          d="M14.2441 13.8209C16.3941 10.6573 16.4497 7.14809 14.4108 3.29333C15.9221 4.82477 16.8546 6.92638 16.8546 9.24527C16.8546 10.585 16.5433 11.8522 15.989 12.9789C15.6737 13.4321 15.4341 13.9906 14.793 13.9906C14.5735 13.9906 14.3963 13.9252 14.2441 13.8209Z"
          fill="#000"/>
    <path fill-rule="evenodd" clip-rule="evenodd"
          d="M8.2106 11.3518C11.0637 11.3518 12.2649 9.71463 12.2649 7.38964C12.2649 5.06465 10.4498 2.9245 8.2106 2.9245C5.97144 2.9245 4.15625 5.06465 4.15625 7.38964C4.15625 9.71463 5.35754 11.3518 8.2106 11.3518Z"
          fill="white"/>
    <path d="M7.12048 7.52124C7.96016 7.52124 8.64086 6.77808 8.64086 5.86133C8.64086 4.94458 7.96016 4.20142 7.12048 4.20142C6.2808 4.20142 5.6001 4.94458 5.6001 5.86133C5.6001 6.77808 6.2808 7.52124 7.12048 7.52124Z"
          fill="#000"/>
    <path d="M6.86712 6.24439C7.28697 6.24439 7.62732 5.90139 7.62732 5.47827C7.62732 5.05516 7.28697 4.71216 6.86712 4.71216C6.44728 4.71216 6.10693 5.05516 6.10693 5.47827C6.10693 5.90139 6.44728 6.24439 6.86712 6.24439Z"
          fill="white"/>
</svg>
