<?xml version="1.0" ?><svg id="Layer_1" style="enable-background:new 0 0 128 128;" version="1.1" viewBox="0 0 128 128" xml:space="preserve" xmlns="http://www.w3.org/2000/svg" xmlns:xlink="http://www.w3.org/1999/xlink"><style type="text/css">
	.st0{fill:#231F20;}
	.st1{fill:#E61E25;}
	.st2{fill:#089949;}
	.st3{fill:#FFFFFF;}
	.st4{fill:#D81F26;}
	.st5{fill:#233E93;}
	.st6{fill:#F16522;}
	.st7{fill:#0398C3;}
	.st8{fill:#DE1E39;}
	.st9{fill:#00AD65;}
	.st10{fill:#FFFFFB;}
	.st11{fill:#CE2031;}
	.st12{fill:#A81D44;}
	.st13{fill:#008757;}
	.st14{fill:#ED3342;}
	.st15{fill:#F8EC3B;}
	.st16{fill:#F37C20;}
	.st17{fill:#F1E923;}
	.st18{fill:#020202;}
	.st19{fill:#E32A27;}
	.st20{fill:#EC1C2B;}
	.st21{fill:#28439B;}
	.st22{fill:#E32B25;}
	.st23{fill:#FDDB00;}
	.st24{fill:#E71D2E;}
	.st25{fill:#0D8943;}
	.st26{fill:#F58722;}
	.st27{fill:#333493;}
	.st28{fill:#D52028;}
	.st29{fill:#2B4A9E;}
	.st30{fill:#1D9E49;}
	.st31{fill:#DB1F26;}
	.st32{fill:#DD1F28;}
	.st33{fill:#35469C;}
	.st34{fill:#ED2424;}
	.st35{fill:#018B45;}
	.st36{fill:#DD1F26;}
	.st37{fill:#0A9D49;}
	.st38{fill:#E81E25;}
	.st39{fill:#293580;}
	.st40{fill:#D91F26;}
	.st41{fill:#EC1C25;}
	.st42{fill:#27B36D;}
	.st43{fill:#FBDF00;}
	.st44{fill:#3EB44A;}
	.st45{fill:#ED2E33;}
	.st46{fill:#DF252F;}
	.st47{fill:#2F4C9F;}
	.st48{fill:#F6CD0F;}
	.st49{fill:#DC1F28;}
	.st50{fill:#117F40;}
	.st51{fill:#E13131;}
	.st52{fill:#2B2D7E;}
	.st53{fill:#FCD900;}
	.st54{fill:#038A45;}
	.st55{fill:#EC2025;}
	.st56{fill:#EC1C2A;}
	.st57{fill:#2651A3;}
	.st58{fill:#0D804B;}
	.st59{fill:#354EA0;}
	.st60{fill:none;}
	.st61{fill:#DF1F2A;}
	.st62{fill:#FFFFFA;}
	.st63{fill:#F9D10B;}
	.st64{fill:#DF1F26;}
	.st65{fill:#009651;}
</style><g><g><path class="st3" d="M98.7,28H61.1v-8.7h25.4C91,21.6,95.1,24.5,98.7,28z"/><path class="st0" d="M86.5,19.3H61.1v-5.3c1,0,1.9-0.1,2.9-0.1C72.1,14,79.7,15.9,86.5,19.3z"/><path class="st3" d="M109,42.2H61.1v-8.7h42.5c1.3,1.8,2.6,3.6,3.7,5.5C107.9,40,108.5,41.1,109,42.2z"/><path class="st0" d="M103.6,33.5H61.1V28h37.6C100.5,29.7,102.1,31.6,103.6,33.5z"/><path class="st3" d="M113.4,56.3H61.1v-8.7h50.2C112.2,50.4,113,53.3,113.4,56.3z"/><path class="st0" d="M111.3,47.7H61.1v-5.5H109C109.8,43.9,110.6,45.8,111.3,47.7z"/><path class="st3" d="M114,64c0,2.2-0.1,4.4-0.4,6.5H14.4C14.1,68.4,14,66.2,14,64c0-0.7,0-1.4,0-2.2H114C114,62.6,114,63.3,114,64    z"/><path class="st3" d="M112.5,76c-0.7,3-1.7,5.9-3,8.7H18.5c-1.3-2.8-2.3-5.7-3-8.7H112.5z"/><path class="st3" d="M106.6,90.2c-1.9,3.1-4.2,6-6.8,8.7H28.1c-2.6-2.6-4.8-5.5-6.8-8.7H106.6z"/><path class="st3" d="M93.6,104.3c-8.3,6.1-18.5,9.7-29.6,9.7s-21.3-3.6-29.6-9.7H93.6z"/><path class="st0" d="M99.8,98.8c-1.9,2-4,3.8-6.3,5.5H34.4c-2.3-1.7-4.4-3.5-6.3-5.5H99.8z"/><path class="st0" d="M109.5,84.7c-0.7,1.5-1.4,2.9-2.2,4.3c-0.2,0.4-0.5,0.8-0.7,1.2H21.4c-0.2-0.4-0.5-0.8-0.7-1.2    c-0.8-1.4-1.6-2.8-2.2-4.3H109.5z"/><path class="st0" d="M113.6,70.5c-0.2,1.9-0.6,3.7-1,5.5H15.5c-0.5-1.8-0.8-3.6-1-5.5H113.6z"/><path class="st0" d="M114,61.8H61.1v-5.5h52.3C113.7,58.1,113.9,60,114,61.8z"/><path class="st51" d="M86.5,19.3H61.1v-5.3c1,0,1.9-0.1,2.9-0.1C72.1,14,79.7,15.9,86.5,19.3z"/><path class="st51" d="M103.6,33.5H61.1V28h37.6C100.5,29.7,102.1,31.6,103.6,33.5z"/><path class="st51" d="M111.3,47.7H61.1v-5.5H109C109.8,43.9,110.6,45.8,111.3,47.7z"/><path class="st51" d="M114,61.8H61.1v-5.5h52.3C113.7,58.1,113.9,60,114,61.8z"/><path class="st51" d="M113.6,70.5c-0.2,1.9-0.6,3.7-1,5.5H15.5c-0.5-1.8-0.8-3.6-1-5.5H113.6z"/><path class="st51" d="M109.5,84.7c-0.7,1.5-1.4,2.9-2.2,4.3c-0.2,0.4-0.5,0.8-0.7,1.2H21.4c-0.2-0.4-0.5-0.8-0.7-1.2    c-0.8-1.4-1.6-2.8-2.2-4.3H109.5z"/><path class="st51" d="M99.8,98.8c-1.9,2-4,3.8-6.3,5.5H34.4c-2.3-1.7-4.4-3.5-6.3-5.5H99.8z"/></g><path class="st52" d="M61.1,14.1v47.8H14c0.1-1.9,0.3-3.7,0.5-5.5c0.5-3,1.2-5.9,2.1-8.7c0.7-1.9,1.4-3.7,2.3-5.5   c0.5-1.1,1.1-2.1,1.7-3.2c1.1-1.9,2.3-3.8,3.7-5.5c1.5-1.9,3.2-3.8,4.9-5.5c3.6-3.5,7.7-6.4,12.2-8.7   C47.5,16.3,54.1,14.5,61.1,14.1z"/><path class="st53" d="M46.4,51.2c-0.5,0.1-1,0.1-1.6,0.1c-4,0-7.5-2.2-9.3-5.4c-0.9-1.6-1.4-3.4-1.4-5.4c0-2,0.5-3.8,1.4-5.4   c1.9-3.2,5.3-5.4,9.3-5.4c0.5,0,1.1,0,1.6,0.1c-3.3,0.5-6.2,2.5-7.8,5.3c-0.9,1.6-1.4,3.4-1.4,5.4c0,2,0.5,3.8,1.4,5.4   C40.2,48.7,43,50.7,46.4,51.2z"/></g></svg>