<svg width="67" height="40" viewBox="0 0 67 40" fill="none" xmlns="http://www.w3.org/2000/svg">
<mask id="path-1-inside-1" fill="white">
<path d="M15.8091 10.4286H28.4459V11.4223H16.9675V18.9002H27.7616V19.8937H16.9675V28.1038H28.5776V29.0973H15.8091V10.4286ZM29.5781 10.4286H30.9208L36.8705 18.6387L42.952 10.4285L51.2237 0L37.634 19.5016L44.6369 29.0973H43.2416L36.8705 20.3644L30.4731 29.0973H29.1042L36.1597 19.5015L29.578 10.4286H29.5781ZM45.1371 11.4223V10.4285H59.5379V11.4221H52.9034V29.0972H51.7451V11.4223H45.1371ZM0 10.4285H1.44796L21.4145 39.9849L13.1634 29.0972L1.21097 11.8405L1.15837 29.0975H0V10.4285ZM59.4212 27.8038C59.1844 27.8038 59.007 27.6225 59.007 27.388C59.007 27.1537 59.1844 26.9722 59.4212 26.9722C59.6606 26.9722 59.8353 27.1535 59.8353 27.388C59.8353 27.6224 59.6606 27.8038 59.4212 27.8038ZM60.5594 26.7099H61.1792C61.1876 27.0419 61.4327 27.2652 61.7934 27.2652C62.1963 27.2652 62.4245 27.0252 62.4245 26.5759V23.7293H63.0556V26.5786C63.0556 27.388 62.5823 27.8541 61.799 27.8541C61.0636 27.8541 60.5594 27.4019 60.5594 26.7098V26.7099ZM63.8811 26.6737H64.5066C64.5601 27.0559 64.9377 27.2986 65.4815 27.2986C65.9886 27.2986 66.3605 27.0391 66.3605 26.6819C66.3605 26.375 66.1238 26.1908 65.5857 26.0652L65.0616 25.9397C64.3261 25.7693 63.991 25.4177 63.991 24.8261C63.991 24.109 64.5826 23.6317 65.4701 23.6317C66.2956 23.6317 66.8986 24.1089 66.9352 24.7871H66.321C66.2618 24.4159 65.9349 24.1842 65.4616 24.1842C64.963 24.1842 64.6307 24.4215 64.6307 24.7842C64.6307 25.0716 64.8446 25.2364 65.3743 25.3591L65.8223 25.468C66.6562 25.6606 67 25.9955 67 26.601C67 27.3713 66.3971 27.8541 65.4336 27.8541C64.532 27.8541 63.9261 27.3935 63.8811 26.6735V26.6737Z"/>
</mask>
<path d="M15.8091 10.4286H28.4459V11.4223H16.9675V18.9002H27.7616V19.8937H16.9675V28.1038H28.5776V29.0973H15.8091V10.4286ZM29.5781 10.4286H30.9208L36.8705 18.6387L42.952 10.4285L51.2237 0L37.634 19.5016L44.6369 29.0973H43.2416L36.8705 20.3644L30.4731 29.0973H29.1042L36.1597 19.5015L29.578 10.4286H29.5781ZM45.1371 11.4223V10.4285H59.5379V11.4221H52.9034V29.0972H51.7451V11.4223H45.1371ZM0 10.4285H1.44796L21.4145 39.9849L13.1634 29.0972L1.21097 11.8405L1.15837 29.0975H0V10.4285ZM59.4212 27.8038C59.1844 27.8038 59.007 27.6225 59.007 27.388C59.007 27.1537 59.1844 26.9722 59.4212 26.9722C59.6606 26.9722 59.8353 27.1535 59.8353 27.388C59.8353 27.6224 59.6606 27.8038 59.4212 27.8038ZM60.5594 26.7099H61.1792C61.1876 27.0419 61.4327 27.2652 61.7934 27.2652C62.1963 27.2652 62.4245 27.0252 62.4245 26.5759V23.7293H63.0556V26.5786C63.0556 27.388 62.5823 27.8541 61.799 27.8541C61.0636 27.8541 60.5594 27.4019 60.5594 26.7098V26.7099ZM63.8811 26.6737H64.5066C64.5601 27.0559 64.9377 27.2986 65.4815 27.2986C65.9886 27.2986 66.3605 27.0391 66.3605 26.6819C66.3605 26.375 66.1238 26.1908 65.5857 26.0652L65.0616 25.9397C64.3261 25.7693 63.991 25.4177 63.991 24.8261C63.991 24.109 64.5826 23.6317 65.4701 23.6317C66.2956 23.6317 66.8986 24.1089 66.9352 24.7871H66.321C66.2618 24.4159 65.9349 24.1842 65.4616 24.1842C64.963 24.1842 64.6307 24.4215 64.6307 24.7842C64.6307 25.0716 64.8446 25.2364 65.3743 25.3591L65.8223 25.468C66.6562 25.6606 67 25.9955 67 26.601C67 27.3713 66.3971 27.8541 65.4336 27.8541C64.532 27.8541 63.9261 27.3935 63.8811 26.6735V26.6737Z" fill="black"/>
<path d="M15.8091 10.4286V7.42861H12.8091V10.4286H15.8091ZM28.4459 10.4286H31.4459V7.42861H28.4459V10.4286ZM28.4459 11.4223V14.4223H31.4459V11.4223H28.4459ZM16.9675 11.4223V8.42226H13.9675V11.4223H16.9675ZM16.9675 18.9002H13.9675V21.9002H16.9675V18.9002ZM27.7616 18.9002H30.7616V15.9002H27.7616V18.9002ZM27.7616 19.8937V22.8937H30.7616V19.8937H27.7616ZM16.9675 19.8937V16.8937H13.9675V19.8937H16.9675ZM16.9675 28.1038H13.9675V31.1038H16.9675V28.1038ZM28.5776 28.1038H31.5776V25.1038H28.5776V28.1038ZM28.5776 29.0973V32.0973H31.5776V29.0973H28.5776ZM15.8091 29.0973H12.8091V32.0973H15.8091V29.0973ZM30.9208 10.4286L33.3499 8.6682L32.4516 7.42861H30.9208V10.4286ZM36.8705 18.6387L34.4414 20.3991L36.8441 23.7146L39.2812 20.4243L36.8705 18.6387ZM42.952 10.4285L40.6016 8.56417L40.5708 8.60301L40.5413 8.64284L42.952 10.4285ZM51.2237 0L53.6851 1.71518L48.8733 -1.86431L51.2237 0ZM37.634 19.5016L35.1726 17.7864L33.9494 19.5418L35.2107 21.2701L37.634 19.5016ZM44.6369 29.0973V32.0973H50.5403L47.0602 27.3288L44.6369 29.0973ZM43.2416 29.0973L40.818 30.8654L41.7167 32.0973H43.2416V29.0973ZM36.8705 20.3644L39.2941 18.5963L36.8756 15.2811L34.4504 18.5915L36.8705 20.3644ZM30.4731 29.0973V32.0973H31.9942L32.8932 30.8702L30.4731 29.0973ZM29.1042 29.0973L26.6872 27.3202L23.1747 32.0973H29.1042V29.0973ZM36.1597 19.5015L38.5767 21.2786L39.8746 19.5134L38.5881 17.7399L36.1597 19.5015ZM29.578 10.4286V7.42861H23.6955L27.1497 12.1902L29.578 10.4286ZM45.1371 10.4285V7.42848H42.1371V10.4285H45.1371ZM59.5379 10.4285H62.5379V7.42848H59.5379V10.4285ZM59.5379 11.4221V14.4221H62.5379V11.4221H59.5379ZM52.9034 11.4221V8.42214H49.9034V11.4221H52.9034ZM52.9034 29.0972V32.0972H55.9034V29.0972H52.9034ZM51.7451 29.0972H48.7451V32.0972H51.7451V29.0972ZM51.7451 11.4223H54.7451V8.42226H51.7451V11.4223ZM0 10.4285V7.42848H-3V10.4285H0ZM1.44796 10.4285L3.93388 8.74914L3.04172 7.42848H1.44796V10.4285ZM21.4145 39.9849L19.0235 41.7968L23.9004 38.3055L21.4145 39.9849ZM13.1634 29.0972L10.6972 30.8054L10.7337 30.8581L10.7724 30.9092L13.1634 29.0972ZM1.21097 11.8405L3.67718 10.1324L-1.7599 2.28239L-1.78901 11.8314L1.21097 11.8405ZM1.15837 29.0975V32.0975H4.14924L4.15835 29.1066L1.15837 29.0975ZM0 29.0975H-3V32.0975H0V29.0975ZM60.5594 26.7099H57.5594V29.7099H60.5594V26.7099ZM61.1792 26.7099L64.1783 26.6343L64.1045 23.7099H61.1792V26.7099ZM62.4245 23.7293V20.7293H59.4245V23.7293H62.4245ZM63.0556 23.7293H66.0556V20.7293H63.0556V23.7293ZM63.8811 26.6737H60.8811V29.6737H63.8811V26.6737ZM64.5066 26.6737L67.4776 26.2577L67.1158 23.6737H64.5066V26.6737ZM65.5857 26.0652L64.8867 28.9827L64.8953 28.9847L64.9039 28.9868L65.5857 26.0652ZM65.0616 25.9397L65.7606 23.0222L65.7496 23.0196L65.7386 23.0171L65.0616 25.9397ZM66.9352 24.7871V27.7871H70.1017L69.9309 24.6252L66.9352 24.7871ZM66.321 24.7871L63.3584 25.2592L63.7612 27.7871H66.321V24.7871ZM65.3743 25.3591L66.0828 22.444L66.0671 22.4401L66.0514 22.4365L65.3743 25.3591ZM65.8223 25.468L65.1138 28.3831L65.1304 28.3871L65.1471 28.391L65.8223 25.468ZM63.8811 26.6735L66.8753 26.4863L60.8811 26.6735H63.8811ZM15.8091 13.4286H28.4459V7.42861H15.8091V13.4286ZM25.4459 10.4286V11.4223H31.4459V10.4286H25.4459ZM28.4459 8.42226H16.9675V14.4223H28.4459V8.42226ZM13.9675 11.4223V18.9002H19.9675V11.4223H13.9675ZM16.9675 21.9002H27.7616V15.9002H16.9675V21.9002ZM24.7616 18.9002V19.8937H30.7616V18.9002H24.7616ZM27.7616 16.8937H16.9675V22.8937H27.7616V16.8937ZM13.9675 19.8937V28.1038H19.9675V19.8937H13.9675ZM16.9675 31.1038H28.5776V25.1038H16.9675V31.1038ZM25.5776 28.1038V29.0973H31.5776V28.1038H25.5776ZM28.5776 26.0973H15.8091V32.0973H28.5776V26.0973ZM18.8091 29.0973V10.4286H12.8091V29.0973H18.8091ZM29.5781 13.4286H30.9208V7.42861H29.5781V13.4286ZM28.4916 12.189L34.4414 20.3991L39.2997 16.8783L33.3499 8.6682L28.4916 12.189ZM39.2812 20.4243L45.3627 12.2141L40.5413 8.64284L34.4598 16.8531L39.2812 20.4243ZM45.3024 12.2928L53.5741 1.86431L48.8733 -1.86431L40.6016 8.56417L45.3024 12.2928ZM48.7624 -1.71518L35.1726 17.7864L40.0953 21.2168L53.6851 1.71518L48.7624 -1.71518ZM35.2107 21.2701L42.2136 30.8659L47.0602 27.3288L40.0573 17.7331L35.2107 21.2701ZM44.6369 26.0973H43.2416V32.0973H44.6369V26.0973ZM45.6652 27.3292L39.2941 18.5963L34.4469 22.1325L40.818 30.8654L45.6652 27.3292ZM34.4504 18.5915L28.053 27.3245L32.8932 30.8702L39.2906 22.1373L34.4504 18.5915ZM30.4731 26.0973H29.1042V32.0973H30.4731V26.0973ZM31.5212 30.8745L38.5767 21.2786L33.7427 17.7244L26.6872 27.3202L31.5212 30.8745ZM38.5881 17.7399L32.0064 8.66703L27.1497 12.1902L33.7314 21.2631L38.5881 17.7399ZM29.578 13.4286H29.5781V7.42861H29.578V13.4286ZM48.1371 11.4223V10.4285H42.1371V11.4223H48.1371ZM45.1371 13.4285H59.5379V7.42848H45.1371V13.4285ZM56.5379 10.4285V11.4221H62.5379V10.4285H56.5379ZM59.5379 8.42214H52.9034V14.4221H59.5379V8.42214ZM49.9034 11.4221V29.0972H55.9034V11.4221H49.9034ZM52.9034 26.0972H51.7451V32.0972H52.9034V26.0972ZM54.7451 29.0972V11.4223H48.7451V29.0972H54.7451ZM51.7451 8.42226H45.1371V14.4223H51.7451V8.42226ZM0 13.4285H1.44796V7.42848H0V13.4285ZM-1.03796 12.1078L18.9286 41.6642L23.9004 38.3055L3.93388 8.74914L-1.03796 12.1078ZM23.8055 38.1729L15.5544 27.2852L10.7724 30.9092L19.0235 41.7968L23.8055 38.1729ZM15.6296 27.3891L3.67718 10.1324L-1.25524 13.5487L10.6972 30.8054L15.6296 27.3891ZM-1.78901 11.8314L-1.84162 29.0883L4.15835 29.1066L4.21096 11.8497L-1.78901 11.8314ZM1.15837 26.0975H0V32.0975H1.15837V26.0975ZM3 29.0975V10.4285H-3V29.0975H3ZM59.4212 24.8038C60.8669 24.8038 62.007 25.9914 62.007 27.388H56.007C56.007 29.2536 57.5019 30.8038 59.4212 30.8038V24.8038ZM62.007 27.388C62.007 28.7835 60.8682 29.9722 59.4212 29.9722V23.9722C57.5007 23.9722 56.007 25.5238 56.007 27.388H62.007ZM59.4212 29.9722C57.9644 29.9722 56.8353 28.7707 56.8353 27.388H62.8353C62.8353 25.5364 61.3569 23.9722 59.4212 23.9722V29.9722ZM56.8353 27.388C56.8353 26.0052 57.9644 24.8038 59.4212 24.8038V30.8038C61.3569 30.8038 62.8353 29.2396 62.8353 27.388H56.8353ZM60.5594 29.7099H61.1792V23.7099H60.5594V29.7099ZM58.1802 26.7855C58.2034 27.7057 58.5769 28.6438 59.3397 29.3351C60.0847 30.0102 60.9929 30.2652 61.7934 30.2652V24.2652C62.2332 24.2652 62.8385 24.4086 63.3687 24.8891C63.9167 25.3857 64.1635 26.0461 64.1783 26.6343L58.1802 26.7855ZM61.7934 30.2652C62.5972 30.2652 63.646 30.009 64.4626 29.1259C65.2456 28.2792 65.4245 27.2755 65.4245 26.5759H59.4245C59.4245 26.3257 59.4893 25.6667 60.0574 25.0523C60.6593 24.4014 61.3924 24.2652 61.7934 24.2652V30.2652ZM65.4245 26.5759V23.7293H59.4245V26.5759H65.4245ZM62.4245 26.7293H63.0556V20.7293H62.4245V26.7293ZM60.0556 23.7293V26.5786H66.0556V23.7293H60.0556ZM60.0556 26.5786C60.0556 26.4011 60.1183 25.8832 60.5926 25.4057C61.0687 24.9264 61.5956 24.8541 61.799 24.8541V30.8541C62.7857 30.8541 63.9409 30.5488 64.8495 29.6341C65.7563 28.7211 66.0556 27.5655 66.0556 26.5786H60.0556ZM61.799 24.8541C62.0418 24.8541 62.4991 24.9351 62.9292 25.3288C63.3846 25.7457 63.5594 26.2885 63.5594 26.7098H57.5594C57.5594 27.8233 57.9862 28.9382 58.8776 29.7542C59.7436 30.5471 60.8208 30.8541 61.799 30.8541V24.8541ZM57.5594 26.7098V26.7099H63.5594V26.7098H57.5594ZM63.8811 29.6737H64.5066V23.6737H63.8811V29.6737ZM61.5356 27.0896C61.8941 29.6506 64.274 30.2986 65.4815 30.2986V24.2986C65.6263 24.2986 65.9984 24.3275 66.4302 24.6045C66.9141 24.915 67.37 25.489 67.4776 26.2577L61.5356 27.0896ZM65.4815 30.2986C66.2149 30.2986 67.0706 30.1149 67.8324 29.5813C68.6323 29.021 69.3605 28.0173 69.3605 26.6819H63.3605C63.3605 25.7038 63.9027 25.0084 64.3899 24.6671C64.839 24.3526 65.2552 24.2986 65.4815 24.2986V30.2986ZM69.3605 26.6819C69.3605 25.5878 68.8632 24.6076 68.0371 23.9536C67.3881 23.4397 66.6759 23.239 66.2674 23.1437L64.9039 28.9868C65.0335 29.017 64.7088 28.9713 64.3126 28.6576C64.0798 28.4733 63.8163 28.1917 63.6216 27.7948C63.4256 27.3952 63.3605 27.0031 63.3605 26.6819H69.3605ZM66.2847 23.1478L65.7606 23.0222L64.3626 28.8571L64.8867 28.9827L66.2847 23.1478ZM65.7386 23.0171C65.6665 23.0004 66.0303 23.0626 66.4153 23.4639C66.8776 23.9457 66.991 24.5089 66.991 24.8261H60.991C60.991 25.735 61.272 26.7697 62.0858 27.6178C62.8222 28.3854 63.7212 28.7086 64.3846 28.8623L65.7386 23.0171ZM66.991 24.8261C66.991 25.3681 66.7337 25.9298 66.2822 26.2943C65.8869 26.6134 65.5393 26.6317 65.4701 26.6317V20.6317C64.5134 20.6317 63.4263 20.8887 62.5133 21.6257C61.5442 22.4081 60.991 23.5671 60.991 24.8261H66.991ZM65.4701 26.6317C65.3174 26.6317 64.9903 26.5866 64.6397 26.3098C64.26 26.0101 63.9703 25.5173 63.9396 24.9489L69.9309 24.6252C69.7827 21.8834 67.3696 20.6317 65.4701 20.6317V26.6317ZM66.9352 21.7871H66.321V27.7871H66.9352V21.7871ZM69.2836 24.3149C68.9195 22.0303 66.8929 21.1842 65.4616 21.1842V27.1842C65.2265 27.1842 64.7852 27.127 64.3204 26.8001C63.814 26.4438 63.4579 25.8839 63.3584 25.2592L69.2836 24.3149ZM65.4616 21.1842C64.776 21.1842 63.8994 21.3427 63.1067 21.9133C62.2344 22.5411 61.6307 23.5703 61.6307 24.7842H67.6307C67.6307 25.6353 67.1931 26.3646 66.6116 26.7831C66.1098 27.1443 65.6487 27.1842 65.4616 27.1842V21.1842ZM61.6307 24.7842C61.6307 25.8545 62.1127 26.8454 62.97 27.5076C63.6169 28.0073 64.3243 28.1953 64.6973 28.2817L66.0514 22.4365C65.8946 22.4002 66.2302 22.4444 66.6377 22.7592C66.8831 22.9487 67.162 23.2413 67.3659 23.6571C67.5699 24.073 67.6307 24.4733 67.6307 24.7842H61.6307ZM64.6658 28.2742L65.1138 28.3831L66.5308 22.5528L66.0828 22.444L64.6658 28.2742ZM65.1471 28.391C65.3563 28.4393 65.0261 28.4102 64.6409 28.0386C64.4233 27.8287 64.2423 27.5608 64.1275 27.2577C64.0185 26.9696 64 26.7315 64 26.601H70C70 25.6649 69.7016 24.584 68.8069 23.7207C68.0413 22.982 67.1222 22.6892 66.4974 22.5449L65.1471 28.391ZM64 26.601C64 26.3968 64.0416 26.1334 64.1715 25.8545C64.3027 25.573 64.4931 25.3426 64.7037 25.1741C64.9082 25.0104 65.0996 24.9299 65.227 24.8919C65.3526 24.8544 65.428 24.8541 65.4336 24.8541V30.8541C66.3822 30.8541 67.5031 30.6185 68.4526 29.8587C69.4757 29.04 70 27.8441 70 26.601H64ZM65.4336 24.8541C65.4699 24.8541 65.7795 24.8626 66.1519 25.1457C66.578 25.4698 66.8435 25.9789 66.8753 26.4863L60.8869 26.8607C60.9637 28.0881 61.5546 29.1876 62.5203 29.9219C63.4323 30.6153 64.4957 30.8541 65.4336 30.8541V24.8541ZM60.8811 26.6735V26.6737H66.8811V26.6735H60.8811Z" fill="black" mask="url(#path-1-inside-1)"/>
</svg>
