<svg width="36" height="36" viewBox="0 0 36 36" fill="none" xmlns="http://www.w3.org/2000/svg">
<path d="M18 0L2.4075 9V27L18 36L33.5925 27V9L18 0ZM27 24.885C27 25.9425 26.031 26.82 24.7065 26.82C23.76 26.82 22.68 26.4375 22.005 25.605L13.005 14.8935V24.8835C13.005 25.965 12.15 26.8185 11.094 26.8185H10.98C9.8985 26.8185 9.045 25.9185 9.045 24.8835V11.115C9.045 10.0575 9.99 9.18 11.295 9.18C12.264 9.18 13.365 9.5625 14.04 10.395L22.995 21.1065V11.115C22.995 10.0335 23.895 9.18 24.93 9.18H25.0425C26.1225 9.18 26.9775 10.08 26.9775 11.115V24.885H27Z" fill="black"/>
</svg>
