<?xml version="1.0" ?><svg id="Layer_1" style="enable-background:new 0 0 128 128;" version="1.1" viewBox="0 0 128 128" xml:space="preserve" xmlns="http://www.w3.org/2000/svg" xmlns:xlink="http://www.w3.org/1999/xlink"><style type="text/css">
	.st0{fill:#231F20;}
	.st1{fill:#E61E25;}
	.st2{fill:#089949;}
	.st3{fill:#FFFFFF;}
	.st4{fill:#D81F26;}
	.st5{fill:#233E93;}
	.st6{fill:#F16522;}
	.st7{fill:#0398C3;}
	.st8{fill:#DE1E39;}
	.st9{fill:#00AD65;}
	.st10{fill:#FFFFFB;}
	.st11{fill:#CE2031;}
	.st12{fill:#A81D44;}
	.st13{fill:#008757;}
	.st14{fill:#ED3342;}
	.st15{fill:#F8EC3B;}
	.st16{fill:#F37C20;}
	.st17{fill:#F1E923;}
	.st18{fill:#020202;}
	.st19{fill:#E32A27;}
	.st20{fill:#EC1C2B;}
	.st21{fill:#28439B;}
	.st22{fill:#E32B25;}
	.st23{fill:#FDDB00;}
	.st24{fill:#E71D2E;}
	.st25{fill:#0D8943;}
	.st26{fill:#F58722;}
	.st27{fill:#333493;}
	.st28{fill:#D52028;}
	.st29{fill:#2B4A9E;}
	.st30{fill:#1D9E49;}
	.st31{fill:#DB1F26;}
	.st32{fill:#DD1F28;}
	.st33{fill:#35469C;}
	.st34{fill:#ED2424;}
	.st35{fill:#018B45;}
	.st36{fill:#DD1F26;}
	.st37{fill:#0A9D49;}
	.st38{fill:#E81E25;}
	.st39{fill:#293580;}
	.st40{fill:#D91F26;}
	.st41{fill:#EC1C25;}
	.st42{fill:#27B36D;}
	.st43{fill:#FBDF00;}
	.st44{fill:#3EB44A;}
	.st45{fill:#ED2E33;}
	.st46{fill:#DF252F;}
	.st47{fill:#2F4C9F;}
	.st48{fill:#F6CD0F;}
	.st49{fill:#DC1F28;}
	.st50{fill:#117F40;}
	.st51{fill:#E13131;}
	.st52{fill:#2B2D7E;}
	.st53{fill:#FCD900;}
	.st54{fill:#038A45;}
	.st55{fill:#EC2025;}
	.st56{fill:#EC1C2A;}
	.st57{fill:#2651A3;}
	.st58{fill:#0D804B;}
	.st59{fill:#354EA0;}
	.st60{fill:none;}
	.st61{fill:#DF1F2A;}
	.st62{fill:#FFFFFA;}
	.st63{fill:#F9D10B;}
	.st64{fill:#DF1F26;}
	.st65{fill:#009651;}
</style><g><g><path class="st58" d="M114,64c0,9.1-2.4,17.6-6.7,25c-8.6,14.9-24.8,25-43.3,25c-9.1,0-17.6-2.4-25-6.7    c-7.6-4.4-13.9-10.7-18.3-18.3C16.4,81.6,14,73.1,14,64c0-9.1,2.4-17.7,6.7-25c4.4-7.6,10.7-13.9,18.3-18.3    c7.4-4.3,15.9-6.7,25-6.7c18.5,0,34.7,10,43.3,25C111.6,46.3,114,54.9,114,64z"/><path class="st3" d="M39,20.7v86.6c-7.6-4.4-13.9-10.7-18.3-18.3C16.4,81.6,14,73.1,14,64c0-9.1,2.4-17.7,6.7-25    C25.1,31.4,31.4,25.1,39,20.7z"/></g><path class="st3" d="M87.8,72.8c-2.3,4.4-6,8-10.9,10.2c-7.6,3.3-16.1,2.1-22.4-2.5c-3.1-2.3-5.6-5.4-7.3-9.1   c-1.6-3.8-2.2-7.7-1.7-11.5c0.9-7.7,5.7-14.8,13.4-18.1c1-0.4,2-0.8,3.1-1.1c-5.5,3.4-8.9,9.1-9.6,15.3C52,59.4,52.4,63,54,66.5   c1.5,3.5,3.9,6.3,6.7,8.4c5.8,4.3,13.6,5.4,20.7,2.3C83.8,76.1,86,74.6,87.8,72.8z"/><polygon class="st3" points="71.9,53.1 76.2,50.8 75.3,55.6 78.8,59 74,59.7 71.9,64 69.7,59.7 64.9,59 68.4,55.6 67.6,50.8  "/></g></svg>