<svg width="76" height="37" viewBox="0 0 76 37" fill="none" xmlns="http://www.w3.org/2000/svg">
<g clip-path="url(#clip0)">
<path d="M17.2852 7.76082C20.5935 7.78764 22.9906 8.70905 24.4769 10.5238C25.9632 12.3384 26.4535 14.8171 25.9488 17.9595C25.7529 19.3955 25.3179 20.8038 24.6451 22.1852C24 23.5667 23.1033 24.8125 21.9535 25.9234C20.5513 27.3317 19.0515 28.2257 17.4534 28.6052C15.8554 28.9846 14.2009 29.1741 12.4907 29.1741H7.44414L5.84606 36.8942H0L6.01409 7.76082H17.2852ZM67.1444 7.76082C70.4526 7.78764 72.8499 8.70905 74.3362 10.5238C75.8223 12.3384 76.3128 14.8171 75.8081 17.9595C75.6121 19.3955 75.1772 20.8038 74.5043 22.1852C73.8591 23.5667 72.9625 24.8125 71.8127 25.9234C70.4106 27.3317 68.9108 28.2257 67.3127 28.6052C65.7145 28.9846 64.06 29.1741 62.35 29.1741H57.3031L55.705 36.8942H49.8591L55.8734 7.76082H67.1445H67.1444ZM38.4119 0L36.7717 7.76082H41.9867C44.8465 7.81532 46.9772 8.38408 48.3792 9.46741C49.8092 10.5506 50.2298 12.6098 49.6409 15.6434L46.8231 29.1741H40.9352L43.6268 16.2529C43.9069 14.8982 43.8228 13.9368 43.3745 13.368C42.9262 12.7991 41.959 12.5147 40.4725 12.5147L35.8043 12.4742L32.3557 29.1741H26.5519L32.6082 0H38.4119ZM12.7431 12.3928C12.4214 12.4192 12.0987 12.4327 11.7758 12.4334H10.9262L8.41136 24.5825C8.57954 24.6094 8.74772 24.6232 8.91605 24.6232H9.50475C12.1964 24.65 14.4397 24.3932 16.2339 23.8512C18.028 23.2823 19.2341 21.3051 19.8507 17.9189C20.3554 15.0746 19.8507 13.4354 18.3366 13.0023C16.8503 12.5692 14.9864 12.366 12.7431 12.3928ZM62.6023 12.3928C62.2806 12.4192 61.9579 12.4327 61.635 12.4334H60.7853L58.2705 24.5825C58.4387 24.6094 58.607 24.6232 58.7752 24.6232H59.364C62.0556 24.65 64.2988 24.3932 66.093 23.8512C67.8871 23.2823 69.0934 21.3051 69.7098 17.9189C70.2145 15.0746 69.7098 13.4354 68.1958 13.0023C66.7096 12.5692 64.8455 12.366 62.6023 12.3928Z" fill="black"/>
</g>
<defs>
<clipPath id="clip0">
<rect width="76" height="37" fill="white"/>
</clipPath>
</defs>
</svg>
