<svg width="64" height="64" viewBox="0 0 64 64" fill="none" xmlns="http://www.w3.org/2000/svg">
<path d="M31.9997 34.7467C34.6286 34.7467 36.7597 32.6156 36.7597 29.9867C36.7597 27.3578 34.6286 25.2267 31.9997 25.2267C29.3709 25.2267 27.2397 27.3578 27.2397 29.9867C27.2397 32.6156 29.3709 34.7467 31.9997 34.7467Z" fill="black"/>
<path d="M18.672 39.4507L17.6186 39.1813C9.79464 37.2053 5.30664 33.8453 5.30664 29.976C5.30664 26.104 9.79731 22.7467 17.6186 20.7707L18.672 20.504L18.968 21.5467C19.7588 24.2765 20.7719 26.937 21.9973 29.5013L22.224 29.976L21.9973 30.4507C20.7706 33.0187 19.7546 35.68 18.968 38.4107L18.672 39.4507ZM17.1333 23.1973C11.1893 24.872 7.53864 27.4267 7.53864 29.976C7.53864 32.52 11.1866 35.0773 17.1333 36.7493C17.8613 34.4347 18.7413 32.1707 19.76 29.976C18.7339 27.7777 17.8564 25.5131 17.1333 23.1973ZM45.3253 39.4507L45.032 38.4053C44.2391 35.675 43.2251 33.0137 42 30.448L41.7733 29.976L42 29.4987C43.2266 26.936 44.2373 24.272 45.032 21.5413L45.3253 20.5013L46.3786 20.768C54.2053 22.744 58.6906 26.1013 58.6906 29.976C58.6906 33.848 54.2026 37.2053 46.3786 39.1813L45.3253 39.4507ZM44.232 29.976C45.2986 32.2853 46.1866 34.5573 46.864 36.7493C52.8106 35.0773 56.4613 32.52 56.4613 29.976C56.4613 27.4267 52.8133 24.8747 46.864 23.1973C46.1367 25.5123 45.2575 27.7768 44.232 29.976Z" fill="black"/>
<path d="M17.1176 23.1866L16.8242 22.1466C14.6216 14.392 15.2882 8.83729 18.6562 6.90129C21.9496 4.99462 27.2482 7.24796 32.7976 12.9413L33.5549 13.72L32.7976 14.496C30.8266 16.5458 29.0251 18.7521 27.4109 21.0933L27.1096 21.5253L26.5869 21.568C23.7484 21.7909 20.9329 22.2448 18.1682 22.9253L17.1176 23.1866ZM21.3362 8.44262C20.7389 8.44262 20.2109 8.57329 19.7656 8.82929C17.5576 10.1013 17.1682 14.5306 18.6882 20.5093C21.0642 19.984 23.4616 19.608 25.8776 19.3973C27.2763 17.4134 28.8021 15.5224 30.4456 13.736C26.9709 10.3573 23.6909 8.44262 21.3362 8.44262ZM42.6616 53.7333C39.4936 53.7333 35.4242 51.344 31.2002 47.008L30.4456 46.232L31.2002 45.4586C33.1715 43.4055 34.9738 41.1965 36.5896 38.8533L36.8882 38.4266L37.4056 38.3759C40.245 38.157 43.0616 37.7048 45.8269 37.024L46.8802 36.7573L47.1762 37.8C49.3682 45.5493 48.7042 51.1119 45.3416 53.048C44.5251 53.5107 43.5999 53.7473 42.6616 53.7333ZM33.5549 46.2133C37.0269 49.5919 40.3096 51.5093 42.6616 51.5093C43.2616 51.5093 43.7896 51.3759 44.2322 51.1226C46.4429 49.8479 46.8349 45.4106 45.3096 39.4319C42.9362 39.96 40.5362 40.3386 38.1149 40.5493C36.7221 42.5363 35.1988 44.4284 33.5549 46.2133Z" fill="black"/>
<path d="M46.8801 23.1867L45.8268 22.9227C43.0616 22.2401 40.245 21.7861 37.4054 21.5653L36.8881 21.52L36.5894 21.088C34.976 18.7455 33.1735 16.5391 31.2001 14.4907L30.4454 13.7147L31.2001 12.9413C36.7468 7.25065 42.0428 4.99732 45.3414 6.90132C48.7068 8.83999 49.3761 14.3947 47.1761 22.1467L46.8801 23.1867ZM38.1148 19.3973C40.6588 19.624 43.0694 20.0053 45.3094 20.5093C46.8321 14.5307 46.4428 10.1013 44.2321 8.82665C42.0348 7.55465 37.8988 9.50132 33.5548 13.736C35.1974 15.5227 36.7228 17.4107 38.1148 19.3973ZM21.3361 53.7333C20.3978 53.7467 19.4728 53.5102 18.6561 53.048C15.2881 51.112 14.6214 45.552 16.8214 37.8L17.1094 36.7573L18.1628 37.024C20.7334 37.672 23.5654 38.128 26.5841 38.376L27.1014 38.4266L27.4028 38.8533C29.0134 41.1946 30.8161 43.4053 32.7894 45.4586L33.5468 46.232L32.7894 47.008C28.5681 51.3466 24.4988 53.7333 21.3361 53.7333ZM18.6881 39.4347C17.1681 45.4133 17.5574 49.8506 19.7654 51.1253C21.9654 52.3786 26.0881 50.4453 30.4454 46.2133C28.8026 44.4264 27.2768 42.5353 25.8774 40.552C23.459 40.3381 21.0574 39.9649 18.6881 39.4347Z" fill="black"/>
<path d="M32.0003 40.8346C30.1683 40.8346 28.2883 40.7572 26.4003 40.5999L25.8776 40.5546L25.5763 40.1226C24.5116 38.5916 23.5099 37.0179 22.5736 35.4052C21.6442 33.7883 20.7804 32.1345 19.9843 30.4479L19.7603 29.9759L19.9843 29.4986C20.7816 27.8132 21.6429 26.1599 22.5736 24.5439C23.4989 22.9546 24.5096 21.3652 25.5763 19.8239L25.8776 19.3972L26.4003 19.3492C30.1253 19.0372 33.8699 19.0372 37.5949 19.3492L38.1123 19.3999L38.4136 19.8266C40.5464 22.8899 42.4196 26.126 44.0136 29.5012L44.2349 29.9786L44.0136 30.4506C42.424 33.8281 40.5506 37.0646 38.4136 40.1252L38.1123 40.5572L37.5949 40.6026C35.7123 40.7546 33.8296 40.8346 32.0003 40.8346ZM27.1096 38.4239C30.4029 38.6719 33.5976 38.6719 36.8883 38.4239C38.7253 35.7338 40.3583 32.9099 41.7736 29.9759C40.3633 27.0393 38.7301 24.215 36.8883 21.5279C33.6335 21.2772 30.3643 21.2772 27.1096 21.5279C25.2662 24.214 23.6329 27.0384 22.2243 29.9759C23.6426 32.9083 25.2755 35.732 27.1096 38.4239Z" fill="black"/>
</svg>
