<svg width="36" height="36" viewBox="0 0 36 36" fill="none" xmlns="http://www.w3.org/2000/svg">
<path d="M30.3075 24.588C26.604 29.5215 18.696 27.8565 13.6245 28.095C13.6245 28.095 12.726 28.146 11.823 28.2945C11.823 28.2945 12.165 28.149 12.6015 27.9975C16.1625 26.766 17.8455 26.5185 20.01 25.407C24.075 23.325 28.122 18.7875 28.9455 14.0745C27.3975 18.6075 22.6905 22.509 18.405 24.093C15.4725 25.176 10.167 26.229 10.1655 26.229C10.0934 26.1921 10.0219 26.1541 9.951 26.115C6.3435 24.36 6.2385 16.545 12.792 14.0265C15.666 12.9225 18.4125 13.5285 21.519 12.789C24.831 12.0015 28.668 9.51898 30.2265 6.27298C31.974 11.46 34.074 19.572 30.3075 24.588ZM30.3705 4.66798C29.9515 5.6726 29.4153 6.6242 28.773 7.50298C27.3768 6.06395 25.7057 4.92001 23.859 4.13902C22.0123 3.35802 20.0276 2.95589 18.0225 2.95648C9.738 2.95648 3 9.69448 3 17.9775C2.99903 20.0436 3.42565 22.0876 4.25301 23.9809C5.08038 25.8741 6.29058 27.5757 7.8075 28.9785L8.1375 29.2695C7.89697 29.0286 7.76197 28.702 7.76218 28.3615C7.76239 28.0211 7.8978 27.6946 8.13863 27.454C8.37946 27.2134 8.706 27.0782 9.04644 27.0783C9.38689 27.0784 9.71337 27.2137 9.9541 27.4544C10.1948 27.6951 10.3301 28.0216 10.3302 28.362C10.3302 28.7025 10.1951 29.029 9.95448 29.2699C9.71384 29.5107 9.38742 29.6461 9.04697 29.6463C8.70653 29.6465 8.37993 29.5115 8.139 29.271L8.3625 29.469C11.0631 31.7522 14.4861 33.0034 18.0225 33C25.9395 33 32.442 26.838 32.9985 19.062C33.4095 15.2535 32.2845 10.4175 30.3705 4.66798Z" fill="black"/>
</svg>
