<svg width="47" height="47" viewBox="0 0 47 47" fill="none" xmlns="http://www.w3.org/2000/svg">
<g clip-path="url(#clip0)">
<path d="M12.1172 15.3264L8.93736 16.0021L8.92267 26.4596C8.92267 28.391 10.3767 29.6394 12.3081 29.6394C13.3803 29.6394 14.1661 29.4411 14.5994 29.2061V26.7239C14.1808 26.8928 12.1245 27.495 12.1245 25.571V20.9297H14.5994V18.1538H12.1245L12.1172 15.3264ZM18.6605 19.1158L18.4622 18.1538H15.6422V29.4044H18.8955V21.833C19.6666 20.8196 20.9664 21.0178 21.385 21.15V18.1538C20.9444 17.9996 19.4242 17.7131 18.6605 19.1158ZM25.4388 13.8063L22.1635 14.5039V17.1624L25.4388 16.4647V13.8063ZM3.29735 21.4658C3.29735 20.9591 3.72329 20.7608 4.40626 20.7535C5.39767 20.7535 6.66079 21.0546 7.6522 21.5906V18.521C6.62036 18.1184 5.52115 17.9165 4.41361 17.9261C1.76985 17.9261 0.00735474 19.3067 0.00735474 21.6127C0.00735474 25.2258 4.96439 24.6383 4.96439 26.1952C4.96439 26.7974 4.44298 26.9956 3.71595 26.9956C2.63642 26.9956 1.2411 26.5477 0.146886 25.9528V28.8903C1.3586 29.4117 2.58501 29.6321 3.70861 29.6321C6.41845 29.6321 8.28376 28.4717 8.28376 26.1217C8.28376 22.2369 3.29735 22.9346 3.29735 21.4658ZM47 23.9113C47 20.5699 45.3844 17.9335 42.2853 17.9335C39.1863 17.9335 37.2989 20.5699 37.2989 23.8892C37.2989 27.8181 39.5241 29.6321 42.6966 29.6321C44.2535 29.6321 45.4211 29.2796 46.3097 28.7875V26.3347C45.4211 26.7827 44.4003 27.0544 43.1078 27.0544C41.8374 27.0544 40.7211 26.6064 40.5742 25.0789H46.956C46.9706 24.91 47 24.2271 47 23.9113ZM40.5449 22.6775C40.5449 21.2088 41.4481 20.5919 42.2633 20.5919C43.0638 20.5919 43.9156 21.2088 43.9156 22.6775H40.5449ZM32.2538 17.9335C30.976 17.9335 30.1535 18.5356 29.6981 18.9542L29.5292 18.1464H26.6578V33.1864L29.9185 32.4961L29.9258 28.8096C30.3958 29.1547 31.0935 29.6321 32.2317 29.6321C34.567 29.6321 36.6967 27.9283 36.6967 23.7864C36.7041 19.9971 34.545 17.9335 32.2538 17.9335ZM31.4753 26.9296C30.7116 26.9296 30.2563 26.6505 29.9405 26.3127L29.9185 21.4658C30.2563 21.0913 30.7263 20.8196 31.4753 20.8196C32.665 20.8196 33.4875 22.1561 33.4875 23.8599C33.4949 25.615 32.687 26.9296 31.4753 26.9296ZM22.1708 29.4044H25.4461V18.1538H22.1708V29.4044Z" fill="black"/>
</g>
<defs>
<clipPath id="clip0">
<rect width="47" height="47" fill="white"/>
</clipPath>
</defs>
</svg>
