<svg width="26" height="26" viewBox="0 0 26 26" fill="none" xmlns="http://www.w3.org/2000/svg">
<g clip-path="url(#clip0)">
<path d="M13.0932 5.61652C9.84924 5.61652 7.82174 7.23852 7.01074 10.4825C8.22724 8.86052 9.64649 8.25227 11.2685 8.65777C12.194 8.88891 12.855 9.56001 13.588 10.3041C14.7811 11.5145 16.1609 12.9155 19.1758 12.9155C22.4198 12.9155 24.4473 11.2935 25.2583 8.04952C24.0418 9.67153 22.6225 10.2798 21.0005 9.87428C20.075 9.64314 19.414 8.97204 18.6811 8.22794C17.4889 7.01752 16.1092 5.61652 13.0932 5.61652ZM7.01074 12.9155C3.76673 12.9155 1.73922 14.5375 0.928223 17.7815C2.14473 16.1595 3.56398 15.5513 5.18598 15.9568C6.11154 16.1879 6.7725 16.859 7.50545 17.6031C8.69863 18.8135 10.0783 20.2146 13.0932 20.2146C16.3373 20.2146 18.3648 18.5925 19.1758 15.3485C17.9593 16.9705 16.54 17.5788 14.918 17.1733C13.9924 16.9422 13.3315 16.2711 12.5985 15.527C11.4064 14.3165 10.0266 12.9155 7.01074 12.9155Z" fill="black"/>
</g>
<defs>
<clipPath id="clip0">
<rect width="24.3301" height="24.3301" fill="white" transform="translate(0.927246 0.750488)"/>
</clipPath>
</defs>
</svg>
