<svg width="31" height="13" viewBox="0 0 31 13" fill="none" xmlns="http://www.w3.org/2000/svg">
<g clip-path="url(#clip0)">
<path d="M23.2915 0.721313H26.1936V12.2907H23.2915V0.721313ZM27.161 0.721313H30.063V12.2907H27.161V0.721313Z" fill="black"/>
<path d="M20.873 3.7231C21.7813 3.7231 22.5175 3.00913 22.5175 2.1284C22.5175 1.24767 21.7813 0.533691 20.873 0.533691C19.9648 0.533691 19.2285 1.24767 19.2285 2.1284C19.2285 3.00913 19.9648 3.7231 20.873 3.7231Z" fill="black"/>
<path d="M14.8831 8.70983L12.8716 4.47354H11.0801L9.06891 8.58788L7.1358 4.47354H3.94415V2.28473H1.04207V4.47354H0.074707V6.66235H1.04207V12.2907H3.94415V6.66235H5.08145L8.09446 12.2907H10.0272L11.9446 8.00878L13.956 12.2907H15.8572L18.9257 6.66235H19.4219V12.2907H22.324V4.47354H16.91L14.8831 8.70983Z" fill="black"/>
</g>
<defs>
<clipPath id="clip0">
<rect width="29.9882" height="11.8821" fill="white" transform="translate(0.074707 0.40863)"/>
</clipPath>
</defs>
</svg>
