<?xml version="1.0" ?><svg id="Layer_1" style="enable-background:new 0 0 128 128;" version="1.1" viewBox="0 0 128 128" xml:space="preserve" xmlns="http://www.w3.org/2000/svg" xmlns:xlink="http://www.w3.org/1999/xlink"><style type="text/css">
	.st0{fill:#231F20;}
	.st1{fill:#E61E25;}
	.st2{fill:#089949;}
	.st3{fill:#FFFFFF;}
	.st4{fill:#D81F26;}
	.st5{fill:#233E93;}
	.st6{fill:#F16522;}
	.st7{fill:#0398C3;}
	.st8{fill:#DE1E39;}
	.st9{fill:#00AD65;}
	.st10{fill:#FFFFFB;}
	.st11{fill:#CE2031;}
	.st12{fill:#A81D44;}
	.st13{fill:#008757;}
	.st14{fill:#ED3342;}
	.st15{fill:#F8EC3B;}
	.st16{fill:#F37C20;}
	.st17{fill:#F1E923;}
	.st18{fill:#020202;}
	.st19{fill:#E32A27;}
	.st20{fill:#EC1C2B;}
	.st21{fill:#28439B;}
	.st22{fill:#E32B25;}
	.st23{fill:#FDDB00;}
	.st24{fill:#E71D2E;}
	.st25{fill:#0D8943;}
	.st26{fill:#F58722;}
	.st27{fill:#333493;}
	.st28{fill:#D52028;}
	.st29{fill:#2B4A9E;}
	.st30{fill:#1D9E49;}
	.st31{fill:#DB1F26;}
	.st32{fill:#DD1F28;}
	.st33{fill:#35469C;}
	.st34{fill:#ED2424;}
	.st35{fill:#018B45;}
	.st36{fill:#DD1F26;}
	.st37{fill:#0A9D49;}
	.st38{fill:#E81E25;}
	.st39{fill:#293580;}
	.st40{fill:#D91F26;}
	.st41{fill:#EC1C25;}
	.st42{fill:#27B36D;}
	.st43{fill:#FBDF00;}
	.st44{fill:#3EB44A;}
	.st45{fill:#ED2E33;}
	.st46{fill:#DF252F;}
	.st47{fill:#2F4C9F;}
	.st48{fill:#F6CD0F;}
	.st49{fill:#DC1F28;}
	.st50{fill:#117F40;}
	.st51{fill:#E13131;}
	.st52{fill:#2B2D7E;}
	.st53{fill:#FCD900;}
	.st54{fill:#038A45;}
	.st55{fill:#EC2025;}
	.st56{fill:#EC1C2A;}
	.st57{fill:#2651A3;}
	.st58{fill:#0D804B;}
	.st59{fill:#354EA0;}
	.st60{fill:none;}
	.st61{fill:#DF1F2A;}
	.st62{fill:#FFFFFA;}
	.st63{fill:#F9D10B;}
	.st64{fill:#DF1F26;}
	.st65{fill:#009651;}
</style><g><g><path class="st54" d="M111.1,47.3H42V19.1c6.6-3.3,14.1-5.1,22-5.1c18.5,0,34.7,10.1,43.3,25C108.8,41.6,110.1,44.4,111.1,47.3z"/><path class="st10" d="M114,64c0,5.9-1,11.5-2.9,16.7H42V47.3h69.1C113,52.5,114,58.2,114,64z"/><path class="st18" d="M111.1,80.7c-1,2.9-2.3,5.7-3.8,8.3c-8.6,15-24.8,25-43.3,25c-7.9,0-15.4-1.8-22-5.1V80.7H111.1z"/></g><path class="st55" d="M42,19.1v89.8c-8.9-4.4-16.3-11.3-21.3-19.9c-1.5-2.6-2.8-5.4-3.8-8.3C15,75.5,14,69.9,14,64   c0-5.8,1-11.5,2.8-16.7c1-2.9,2.3-5.7,3.8-8.3C25.7,30.4,33.1,23.5,42,19.1z"/></g></svg>