<svg width="42" height="42" viewBox="0 0 42 42" fill="none" xmlns="http://www.w3.org/2000/svg">
<path d="M8.55752 21C8.55752 21.9538 8.17863 22.8685 7.5042 23.5429C6.82978 24.2174 5.91506 24.5963 4.96127 24.5963C4.00749 24.5963 3.09277 24.2174 2.41834 23.5429C1.74391 22.8685 1.36502 21.9538 1.36502 21C1.36502 20.0462 1.74391 19.1315 2.41834 18.4571C3.09277 17.7826 4.00749 17.4038 4.96127 17.4038C5.91506 17.4038 6.82978 17.7826 7.5042 18.4571C8.17863 19.1315 8.55752 20.0462 8.55752 21ZM29.0063 38.4825C29.2424 38.8917 29.5568 39.2504 29.9316 39.538C30.3063 39.8257 30.734 40.0367 31.1904 40.1591C31.6467 40.2815 32.1226 40.3128 32.591 40.2512C33.0594 40.1896 33.5111 40.0364 33.9203 39.8003C34.3295 39.5641 34.6881 39.2497 34.9758 38.875C35.2635 38.5002 35.4745 38.0725 35.5969 37.6162C35.7192 37.1599 35.7505 36.6839 35.6889 36.2155C35.6274 35.7471 35.4742 35.2954 35.238 34.8863C34.7611 34.0599 33.9755 33.4568 33.0539 33.2097C32.1324 32.9625 31.1504 33.0916 30.324 33.5685C29.4976 34.0454 28.8945 34.831 28.6474 35.7526C28.4003 36.6741 28.5294 37.6561 29.0063 38.4825ZM35.2275 7.11376C35.4796 6.70469 35.6472 6.24925 35.7203 5.77434C35.7935 5.29943 35.7707 4.81467 35.6534 4.34871C35.536 3.88275 35.3265 3.44502 35.0372 3.0614C34.7478 2.67777 34.3845 2.35602 33.9687 2.11515C33.553 1.87428 33.0931 1.71917 32.6164 1.65899C32.1397 1.59881 31.6557 1.63478 31.1931 1.76477C30.7305 1.89477 30.2987 2.11614 29.9231 2.41583C29.5475 2.71552 29.2357 3.08744 29.0063 3.50963C28.5589 4.33274 28.4504 5.29792 28.7039 6.19981C28.9573 7.1017 29.5527 7.8691 30.3633 8.33871C31.1739 8.80832 32.1358 8.94307 33.0442 8.7143C33.9527 8.48552 34.736 7.91128 35.2275 7.11376ZM23.0738 10.7625C25.6325 10.7587 28.0998 11.7133 29.9898 13.4381C31.8798 15.1629 33.0554 17.5329 33.285 20.0813H38.535C38.2806 16.3157 36.6667 12.7708 33.9938 10.1063C33.2908 10.3859 32.5336 10.5029 31.7789 10.4483C31.0243 10.3938 30.2918 10.1691 29.6363 9.79125C28.9884 9.40074 28.4325 8.87489 28.0066 8.24968C27.5808 7.62446 27.2949 6.91464 27.1688 6.16876C25.8497 5.81938 24.4908 5.6429 23.1263 5.64376C20.7492 5.63816 18.4034 6.1864 16.275 7.24501L18.9 11.7863C20.2042 11.1565 21.6262 10.8078 23.0738 10.7625ZM12.81 21C12.8134 19.3538 13.2108 17.7322 13.9688 16.2709C14.7269 14.8096 15.8237 13.5509 17.1675 12.6L14.5425 8.13751C11.3938 10.2353 9.11693 13.408 8.13752 17.0625C8.72843 17.5346 9.2055 18.1337 9.53336 18.8153C9.86122 19.497 10.0315 20.2436 10.0315 21C10.0315 21.7564 9.86122 22.503 9.53336 23.1847C9.2055 23.8663 8.72843 24.4654 8.13752 24.9375C9.10365 28.5839 11.361 31.7555 14.49 33.8625L17.115 29.4C15.7808 28.4434 14.6942 27.1822 13.9455 25.7212C13.1967 24.2603 12.8075 22.6417 12.81 21ZM23.0738 31.2638C21.5773 31.2524 20.1006 30.9212 18.7425 30.2925L16.1175 34.8338C18.2438 35.8916 20.5905 36.4403 22.9688 36.435C24.3338 36.435 25.6935 36.2591 27.0113 35.91C27.1373 35.1641 27.423 34.4542 27.8489 33.8289C28.2748 33.2037 28.8308 32.6779 29.4788 32.2875C30.1343 31.9098 30.8668 31.6853 31.6214 31.6307C32.376 31.5762 33.1332 31.693 33.8363 31.9725C36.5092 29.308 38.1231 25.7631 38.3775 21.9975H33.1275C32.8827 24.5074 31.7225 26.8393 29.8682 28.5484C28.0139 30.2575 25.5953 31.2241 23.0738 31.2638Z" fill="black"/>
</svg>
