<svg width="36" height="41" viewBox="0 0 36 41" fill="none" xmlns="http://www.w3.org/2000/svg">
<g clip-path="url(#clip0)">
<path d="M36 12.8926V11.1869L33.7098 10.4822L33.533 9.64941L35.1482 7.9918L34.3125 6.43828L31.9821 7.03887L31.4036 6.43828L32.0062 4.18008L30.4714 3.25117L28.7598 4.93281L27.9 4.67656L27.3375 2.5625H25.5214L25.0232 4.67656L24.0509 4.93281L22.4679 3.25117L20.9089 4.13203L21.5598 6.3502L20.9089 7.02285L18.6187 6.42227L17.7348 7.95176L19.3982 9.6334L19.1652 10.4662L16.875 11.0908L16.8509 12.8285L19.1652 13.4291L19.358 14.398L17.7429 15.9916L18.5786 17.473L20.9571 16.8725L21.5357 17.5611L20.8848 19.7152L22.4839 20.6441L24.0429 19.0105L24.975 19.2428L25.5134 21.525L27.3295 21.549L27.8679 19.2428L28.8 18.9625L30.4634 20.6922L32.1027 19.7232L31.3955 17.4811L32.0223 16.8324L34.3366 17.5371L35.1643 15.9275L33.4848 14.4221L33.6616 13.4531L36 12.8926ZM26.4214 16.5121C23.9062 16.5121 21.8571 14.4781 21.8571 11.9637C21.8571 9.44922 23.8982 7.41523 26.4214 7.41523C28.9446 7.41523 30.9857 9.44922 30.9857 11.9637C30.9857 14.4861 28.9446 16.5121 26.4214 16.5121ZM32.2313 17.8254L36 18.9865V22.1816L31.5723 23.2547L31.2429 25.0725L34.3688 27.8992L32.8259 30.9342L28.4866 29.5969L27.3134 30.8141L28.6554 35.0182L25.5777 36.8359L22.4518 33.5928L20.708 34.1213L19.6955 38.4455L16.2884 38.4055L15.2759 34.1133L13.5321 33.6648L10.6071 36.7398L7.60179 35.0021L8.82321 30.9582L7.72232 29.6689L3.2625 30.798L1.67946 28.0113L4.725 25.0164L4.33929 23.1906L0 22.0615L0.0401786 18.7863L4.33929 17.6092L4.79732 16.0316L1.67143 12.8766L3.33482 10.0098L7.64196 11.1389L8.86339 9.88164L7.64196 5.71758L10.567 4.05996L13.5241 7.21504L15.3482 6.72656L16.2804 2.5625H19.6875L20.6196 6.23809L18.8036 5.76562L18.2973 5.62949L18.0321 6.08594L17.1482 7.61543L16.883 8.06387L17.2527 8.43223L18.6348 9.82559L18.6107 9.90566L16.6982 10.4262L16.2 10.5623L16.192 11.0748L16.1759 12.1078C12.3589 12.9406 9.48214 16.3359 9.48214 20.3959C9.48214 25.0645 13.283 28.8602 17.9759 28.8602C22.0339 28.8602 25.425 26.0254 26.2687 22.2297L27.3295 22.2457L27.8839 22.2537L28.0125 21.7172L28.4625 19.7953L28.6152 19.7473L29.9893 21.1727L30.367 21.565L30.833 21.2928L32.4723 20.3238L32.9384 20.0436L32.7777 19.523L32.2313 17.8254Z" fill="black"/>
</g>
<defs>
<clipPath id="clip0">
<rect width="36" height="41" fill="white"/>
</clipPath>
</defs>
</svg>
