<svg width="36" height="36" viewBox="0 0 36 36" fill="none" xmlns="http://www.w3.org/2000/svg">
<path d="M32.2031 10.2364C33.5029 12.6173 34.1819 15.2874 34.1775 18C34.1775 23.9704 30.9487 29.1859 26.1382 31.986L31.0781 17.6951C32.004 15.3866 32.3089 13.5405 32.3089 11.9003C32.3089 11.2905 32.2684 10.728 32.2031 10.2364ZM20.232 10.395C21.2051 10.3477 22.0781 10.2364 22.0781 10.2364C22.9511 10.125 22.8521 8.84138 21.978 8.88863C21.978 8.88863 19.3466 9.08775 17.6591 9.08775C16.065 9.08775 13.3819 8.865 13.3819 8.865C12.5089 8.81775 12.3919 10.1486 13.2705 10.1947C13.2705 10.1947 14.0794 10.2825 14.958 10.3298L17.478 17.2316L13.9219 27.855L8.03362 10.3466C9.00675 10.3061 9.88538 10.2004 9.88538 10.2004C10.7584 10.089 10.6594 8.80538 9.78525 8.85262C9.78525 8.85262 7.16625 9.063 5.47312 9.063C5.17387 9.063 4.81725 9.05175 4.4415 9.03938C7.36538 4.7205 12.3514 1.82025 18 1.82025C22.2131 1.82025 26.0449 3.42563 28.9283 6.06825C28.8574 6.06825 28.7932 6.057 28.7167 6.057C27.1294 6.057 25.9976 7.43962 25.9976 8.928C25.9976 10.2645 26.7716 11.3951 27.5917 12.7249C28.2071 13.8026 28.9215 15.192 28.9215 17.19C28.9215 18.5614 28.3939 20.178 27.6908 22.4111L26.0798 27.7841L20.232 10.3703V10.395ZM18 34.1775C16.4126 34.1775 14.877 33.9491 13.4291 33.5216L18.2812 19.4119L23.256 33.0413C23.2909 33.1234 23.3325 33.1931 23.373 33.264C21.6468 33.8712 19.8299 34.1805 18 34.1786V34.1775ZM1.81687 18C1.81687 15.6566 2.32087 13.4235 3.2175 11.4142L10.9339 32.5665C5.54288 29.9419 1.81687 24.4046 1.81687 18ZM18 0C8.07975 0 0 8.07975 0 18C0 27.9202 8.07975 36 18 36C27.9202 36 36 27.9202 36 18C36 8.07975 27.9202 0 18 0Z" fill="black"/>
</svg>
